<svg width="207" height="206" viewBox="0 0 207 206" fill="none" xmlns="http://www.w3.org/2000/svg">
<g clip-path="url(#clip0_36_336)">
<path d="M44.5904 78.0678C44.5657 78.0653 44.5408 78.0681 44.5174 78.0762C44.4939 78.0842 44.4725 78.0972 44.4546 78.1144C44.4366 78.1315 44.4226 78.1523 44.4135 78.1753C44.4044 78.1984 44.4004 78.2231 44.4017 78.2479C44.4017 81.6442 41.6572 84.3973 38.2866 84.3973C38.2619 84.3959 38.2371 84.4 38.2141 84.4091C38.191 84.4182 38.1702 84.4322 38.1531 84.4501C38.136 84.4681 38.1229 84.4895 38.1149 84.513C38.1069 84.5364 38.104 84.5613 38.1065 84.586C38.1065 84.6889 38.1923 84.7661 38.2866 84.7661C41.6658 84.7661 44.4017 87.5278 44.4017 90.9241C44.4132 91.0384 44.4761 91.0985 44.5904 91.1042C44.6847 91.1042 44.7705 91.0184 44.7705 90.9241C44.775 89.3021 45.4202 87.7475 46.5655 86.599C47.7109 85.4504 49.2636 84.8009 50.8856 84.7918C50.9345 84.7918 50.9814 84.7724 51.016 84.7378C51.0506 84.7032 51.07 84.6563 51.07 84.6074C51.07 84.5585 51.0506 84.5116 51.016 84.477C50.9814 84.4425 50.9345 84.423 50.8856 84.423C49.2585 84.4162 47.7005 83.7639 46.554 82.6093C45.4074 81.4547 44.766 79.8922 44.7705 78.265V78.2479C44.7714 78.224 44.7672 78.2003 44.7584 78.1781C44.7495 78.156 44.7361 78.1359 44.7191 78.1192C44.7024 78.1022 44.6823 78.0888 44.6602 78.0799C44.638 78.0711 44.6143 78.0669 44.5904 78.0678ZM12.9171 82.5791L0.283752 115.513H4.40052L7.4452 107.606H22.7287L25.7648 115.513H29.8901L17.2654 82.5791H12.9171ZM32.3345 82.5962V115.513H36.5456V82.5962H32.3345ZM52.7039 82.5962V115.513H73.3992V111.208H57.0007V101.002H70.526V96.9106H57.0007V86.9102H72.207V82.6048L52.7039 82.5962ZM15.0869 87.6736L21.0734 103.283H9.10049L15.0869 87.6736ZM141.068 91.1214C138.018 91.1309 135.074 92.2462 132.783 94.2604V91.8246H128.572V115.522H132.775C132.792 111.431 132.775 107.331 132.792 103.231C132.906 101.111 133.827 99.1137 135.365 97.6498C136.904 96.186 138.945 95.3661 141.068 95.3582V91.1214ZM176.919 91.1814C176.467 91.1814 176.015 91.21 175.563 91.2672C172.862 91.533 170.366 92.7681 169.105 94.5005C168.242 95.644 167.816 97.0586 167.905 98.4886C167.965 100.204 168.471 101.55 169.903 102.743C171.481 104.003 173.505 104.458 175.538 104.964C178.205 105.539 179.191 105.779 180.221 106.559C180.907 107.16 181.361 107.648 181.387 108.875C181.387 111.019 179.492 112.065 177.785 112.391C176.358 112.682 174.879 112.558 173.52 112.036C172.162 111.513 170.981 110.613 170.117 109.441L166.935 111.911C169.766 115.187 173.599 116.242 176.284 116.199C180.915 116.114 183.926 114.338 185.109 111.619C185.675 110.307 185.65 108.969 185.65 108.36C185.656 107.457 185.452 106.565 185.055 105.754C184.658 104.942 184.077 104.235 183.36 103.686C181.404 102.168 178.359 101.731 177.905 101.611C174.157 100.942 172.262 99.9295 171.927 98.6859C171.558 97.0392 172.802 95.6841 174.474 95.1609C175.793 94.7217 177.217 94.7153 178.539 95.1427C179.861 95.5701 181.012 96.4089 181.824 97.5366L184.972 95.4182C184.058 94.1274 182.853 93.0707 181.453 92.3344C180.054 91.5981 178.5 91.203 176.919 91.1814ZM197.391 91.1814C196.939 91.1814 196.49 91.21 196.044 91.2672C193.334 91.533 190.838 92.7681 189.586 94.5005C188.723 95.644 188.297 97.0586 188.385 98.4886C188.437 100.204 188.943 101.55 190.384 102.743C191.953 104.003 193.986 104.458 196.019 104.964C198.677 105.539 199.672 105.779 200.693 106.559C201.388 107.16 201.842 107.648 201.859 108.875C201.868 111.019 199.964 112.065 198.257 112.391C196.831 112.682 195.351 112.558 193.993 112.036C192.634 111.513 191.453 110.613 190.59 109.441L187.408 111.911C190.238 115.187 194.072 116.242 196.756 116.199C201.396 116.114 204.398 114.338 205.59 111.619C206.148 110.307 206.122 108.969 206.122 108.36C206.128 107.457 205.925 106.565 205.527 105.754C205.13 104.942 204.55 104.235 203.832 103.686C201.885 102.168 198.832 101.731 198.377 101.611C194.629 100.942 192.734 99.9295 192.408 98.6859C192.039 97.0392 193.274 95.6841 194.955 95.1609C196.274 94.7217 197.698 94.7153 199.02 95.1427C200.342 95.5701 201.493 96.4089 202.305 97.5366L205.453 95.4182C204.538 94.1262 203.331 93.0688 201.93 92.3325C200.529 91.5961 198.974 91.2017 197.391 91.1814ZM112.997 91.1985C110.187 91.1969 107.457 92.1409 105.248 93.8786C103.039 95.6163 101.479 98.0466 100.819 100.779C100.583 101.695 100.465 102.637 100.467 103.583V127.881H104.678V112.331C106.136 113.875 108.855 115.933 112.912 116.225C114.947 116.245 116.956 115.765 118.762 114.827C120.568 113.89 122.117 112.523 123.272 110.848C124.584 108.972 125.355 106.771 125.502 104.487C125.649 102.203 125.165 99.922 124.104 97.8937C123.043 95.8654 121.445 94.1675 119.485 92.9853C117.525 91.8031 115.278 91.1821 112.989 91.19L112.997 91.1985ZM154.199 91.1985C152.106 91.2199 150.052 91.7701 148.228 92.7982C146.404 93.8262 144.87 95.2987 143.767 97.0787C142.665 98.8586 142.031 100.888 141.923 102.979C141.816 105.07 142.239 107.154 143.153 109.038C145.34 113.583 150.108 116.499 155.263 116.182C156.929 116.073 158.556 115.63 160.047 114.878C161.539 114.127 162.863 113.083 163.942 111.808L160.829 109.312C159.697 110.653 158.17 111.602 156.466 112.022C154.762 112.443 152.969 112.314 151.343 111.654C150.077 111.144 148.95 110.342 148.052 109.314C147.155 108.285 146.514 107.059 146.18 105.736H165.383L165.4 102.074C165.339 99.1519 164.13 96.3718 162.033 94.3361C159.936 92.3004 157.121 91.1731 154.199 91.1985ZM75.2946 91.8847L84.4029 103.695L75.2946 115.513H80.2776L86.9588 106.851L93.6313 115.513H98.6143L89.506 103.695L98.6143 91.8761H93.6313L86.9588 100.538L80.2776 91.8761L75.2946 91.8847ZM42.4891 92.0133V115.513H46.6917V92.0133H42.4891ZM113.1 95.1867C114.198 95.1974 115.283 95.4278 116.291 95.8643C117.299 96.3008 118.209 96.9344 118.969 97.728C119.728 98.5216 120.321 99.4591 120.712 100.485C121.104 101.511 121.286 102.606 121.248 103.703C121.336 105.804 120.619 107.859 119.243 109.45C117.868 111.04 115.938 112.046 113.846 112.263C111.85 112.469 109.846 111.938 108.213 110.771C106.58 109.604 105.43 107.88 104.978 105.925C104.343 102.648 104.978 99.5264 107.611 97.185C109.135 95.8704 111.088 95.1595 113.1 95.1867ZM154.182 95.3153C155.951 95.3179 157.655 95.9848 158.956 97.184C160.257 98.3833 161.06 100.027 161.206 101.791H146.111C146.519 99.9556 147.54 98.3142 149.005 97.1371C150.471 95.96 152.302 95.3174 154.182 95.3153Z" fill="#909090"/>
</g>
<defs>
<clipPath id="clip0_36_336">
<rect width="205.838" height="205.838" fill="white" transform="translate(0.283691 0.0556641)"/>
</clipPath>
</defs>
</svg>
