<svg width="158" height="158" viewBox="0 0 158 158" fill="none" xmlns="http://www.w3.org/2000/svg">
<path d="M92.77 103.149C87.0709 103.547 87.6224 100.498 91.0082 96.0706C98.7296 85.7754 113.023 71.7879 113.667 61.5693C114.555 48.3019 101.212 44.196 87.4692 44.196C77.9093 44.4412 68.0124 47.0916 61.2714 49.4969C38.0459 57.6932 23.4916 70.5623 14.2534 85.04C4.69353 99.3492 7.66567 113.107 28.3175 113.505C43.9135 112.862 54.4386 108.526 65.0402 103.057C65.1168 103.057 35.5486 111.498 24.6099 105.309C23.3996 104.665 22.2046 103.777 21.8829 101.295C21.8829 96.2238 30.2478 90.923 35.1503 89.2378V80.5511C45.0319 84.0135 56.6907 83.0484 66.6642 75.6486C66.9859 76.5372 67.3077 77.6556 67.2311 78.8659H68.9163C69.3146 75.4035 66.9859 72.0331 63.1252 71.7879C64.2436 72.6765 65.0556 73.3966 65.4539 74.04L65.3007 74.1932L65.2241 74.2698C52.3703 83.2782 39.8996 79.0957 38.7046 78.8506L45.8592 71.8492L43.8522 66.7782C58.0848 61.7991 69.8202 58.1682 89.3383 54.7211L84.972 51.1974L87.2241 49.8339C98.7909 53.0512 106.589 55.4565 106.191 61.5693C106.037 62.6111 105.624 63.8214 104.98 65.1083C101.533 71.9411 91.4065 82.9564 87.3007 87.7057C84.6503 90.8464 81.9998 93.7419 80.1461 96.6375C78.0625 99.6096 77.0054 102.352 76.9288 104.834C77.3271 125.026 136.893 95.3506 148.628 87.5372C131.515 94.8603 112.947 101.862 92.77 103.149ZM105.792 56.7434C106.221 57.54 106.42 58.5205 106.42 59.6696C106.405 58.6278 106.206 57.632 105.792 56.7434Z" fill="#909090"/>
</svg>
