<svg width="122" height="122" viewBox="0 0 122 122" fill="none" xmlns="http://www.w3.org/2000/svg">
<path d="M103.206 25.3221C101.462 25.3221 99.7945 25.5208 98.2093 25.9955C96.6233 26.4702 95.2736 27.1474 94.085 28.0563C92.9111 28.923 91.9375 30.0322 91.2302 31.3085C90.5169 32.5775 90.16 34.0455 90.1594 35.7125C90.1594 37.7724 90.8337 39.7154 92.1429 41.4625C93.4483 43.2473 95.5901 44.5932 98.4853 45.5059L104.236 47.2907C106.178 47.9264 107.529 48.6008 108.243 49.3543C108.956 50.1087 109.313 51.0166 109.313 52.128C109.313 53.7536 108.599 55.0233 107.249 55.8954C105.902 56.7666 103.96 57.2055 101.462 57.2055C99.8726 57.2055 98.3271 57.0473 96.7419 56.7308C95.2424 56.4229 93.7797 55.9569 92.3783 55.3407C91.9818 55.1824 91.6239 55.0242 91.3885 54.947C91.1586 54.868 90.9176 54.8267 90.6746 54.8245C90.0774 54.8245 89.7619 55.2229 89.7619 56.0536V58.0777C89.7628 58.4608 89.8443 58.8395 90.0011 59.189C90.1594 59.5469 90.5936 59.9425 91.2302 60.3004C92.2606 60.8919 93.8052 61.4109 95.7888 61.8856C97.7723 62.3603 99.8359 62.5995 101.896 62.5995C103.921 62.5995 105.785 62.3198 107.569 61.7678C109.272 61.2489 110.741 60.535 111.97 59.5451C113.198 58.5938 114.151 57.4042 114.865 56.0536C115.537 54.7077 115.895 53.1622 115.895 51.4555C115.895 49.3948 115.299 47.5299 114.07 45.9033C112.841 44.2768 110.782 43.0081 107.926 42.0955L102.294 40.3106C100.194 39.6391 98.7245 38.8828 97.9296 38.1293C97.1385 37.3787 96.7419 36.4265 96.7419 35.3151C96.7419 33.6895 97.3739 32.5366 98.6068 31.7869C99.8359 31.0325 101.62 30.6755 103.879 30.6755C106.693 30.6755 109.232 31.1904 111.495 32.2202C112.168 32.5376 112.683 32.6986 112.999 32.6986C113.595 32.6986 113.912 32.2626 113.912 31.43V29.5651C113.912 29.0094 113.794 28.5752 113.555 28.255C113.319 27.899 112.922 27.5816 112.366 27.2651C111.969 27.0259 111.414 26.7904 110.699 26.5512C109.955 26.3106 109.201 26.0982 108.441 25.9145C107.606 25.7563 106.774 25.598 105.862 25.4813C104.981 25.3686 104.094 25.3155 103.206 25.3221ZM21.4327 25.3993C19.2514 25.3993 17.1869 25.6385 15.2448 26.1537C13.3014 26.6297 11.6366 27.2246 10.2502 27.9385C9.69447 28.2183 9.33657 28.4942 9.13878 28.7702C8.94005 29.049 8.86282 29.5237 8.86282 30.1604V32.1034C8.86282 32.9341 9.13878 33.3316 9.69447 33.3316C9.8527 33.3316 10.0505 33.2911 10.3293 33.2138C10.6052 33.1328 11.079 32.9746 11.7157 32.6986C13.1092 32.1473 14.5404 31.6963 15.9983 31.349C17.4007 31.0068 18.8391 30.8339 20.2827 30.8338C23.3362 30.8338 25.4751 31.43 26.7466 32.6591C27.9748 33.8863 28.6115 35.9876 28.6115 39.0015V41.8967C27.0264 41.5398 25.5194 41.2233 24.0501 41.0246C22.5827 40.8268 21.1954 40.7081 19.8485 40.7081C15.7609 40.7081 12.5492 41.7385 10.1324 43.803C7.71094 45.8628 6.52327 48.5999 6.52327 51.9698C6.52327 55.1419 7.51221 57.6802 9.45524 59.5856C11.4011 61.4881 14.0581 62.4412 17.3875 62.4412C22.0691 62.4412 25.9555 60.6163 29.0466 56.9663C29.4236 57.7627 29.8334 58.5432 30.2748 59.3058C30.6913 59.9708 31.1693 60.5952 31.7026 61.1707C32.1001 61.5286 32.4975 61.7264 32.895 61.7264C33.2096 61.7264 33.5675 61.6058 33.9244 61.3704L36.4232 59.7033C36.9374 59.3077 37.1767 58.9093 37.1767 58.5156C37.171 58.1914 37.0755 57.8752 36.9007 57.602C36.4082 56.6833 35.9841 55.7294 35.632 54.7482C35.3523 53.877 35.1941 52.6856 35.1941 51.2163H35.1131V38.3686C35.1131 34.005 34.0054 30.7528 31.8241 28.611C29.6014 26.4702 26.1495 25.3993 21.4327 25.3993ZM39.8741 26.3525C39.2374 26.3525 38.921 26.7094 38.921 27.3423C38.921 27.6221 39.0424 28.1373 39.2779 28.9312L48.5966 59.5856C48.8358 60.339 49.1117 60.8919 49.432 61.1311C49.7484 61.4109 50.2231 61.5286 50.937 61.5286H54.3465C55.0614 61.5286 55.6152 61.4109 55.9326 61.1311C56.2528 60.8552 56.4892 60.34 56.687 59.5451L62.7949 34.005L68.9423 59.5856C69.1006 60.3767 69.3756 60.8919 69.6958 61.1716C70.0132 61.4467 70.5275 61.5691 71.2819 61.5691H74.6923C75.3658 61.5691 75.8809 61.4118 76.1974 61.1716C76.5176 60.9333 76.7936 60.4182 77.0328 59.627L86.5907 28.9689C86.7489 28.5357 86.8262 28.2183 86.8667 27.979C86.9072 27.7398 86.9477 27.5401 86.9477 27.3423C86.9477 26.6689 86.5907 26.3534 85.954 26.3534H82.2686C81.5556 26.3534 81.0366 26.5098 80.7202 26.7499C80.4442 26.9854 80.1645 27.5034 79.929 28.2946L73.0667 54.8669L66.8006 28.2964C66.6442 27.543 66.3636 26.9873 66.0471 26.7518C65.7307 26.4711 65.2145 26.3534 64.461 26.3534H61.2898C60.5759 26.3534 60.0202 26.5107 59.7 26.7509C59.3845 26.9863 59.1462 27.5043 58.9503 28.2955L52.7623 54.5504L46.0988 28.2964C45.8633 27.543 45.6241 26.9873 45.3076 26.7518C45.0279 26.4711 44.5127 26.3534 43.7592 26.3534L39.8741 26.3525ZM21.3122 45.4286C22.5591 45.4299 23.8047 45.5085 25.0419 45.6641C26.2696 45.8192 27.4872 46.0453 28.6887 46.3413V48.0037C28.6887 49.3552 28.5305 50.5024 28.2913 51.4555C28.0558 52.4068 27.5773 53.2403 26.9444 53.9938C25.8735 55.1824 24.6049 56.0536 23.177 56.5321C21.7492 57.0068 20.3995 57.246 19.0932 57.246C17.2688 57.246 15.8815 56.7676 14.9283 55.7777C13.9356 54.8264 13.4609 53.4381 13.4609 51.5733C13.4609 49.5897 14.0967 48.0847 15.403 47.0147C16.7131 45.9438 18.6562 45.4286 21.3122 45.4286ZM112.069 69.7773C107.894 69.8366 102.967 70.7681 99.2397 73.3865C98.0878 74.2181 98.2866 75.3285 99.5562 75.1703C103.802 74.6551 113.156 73.5447 114.824 75.6855C116.491 77.7858 112.962 86.6298 111.374 90.5573C110.899 91.744 111.929 92.2234 112.999 91.3108C119.978 85.4421 121.804 73.1877 120.376 71.4029C119.663 70.5317 116.243 69.717 112.069 69.7773ZM2.46579 72.1423C1.59364 72.2515 1.19712 73.3064 2.11919 74.1399C17.6672 88.1754 38.2475 96.6237 61.0911 96.6237C77.3898 96.6237 96.3445 91.5095 109.39 81.8744C111.531 80.2836 109.671 77.8678 107.487 78.8567C92.8577 85.0447 76.9518 88.0586 62.4784 88.0586C41.025 88.0586 20.2837 82.1504 3.46886 72.3928C3.10154 72.1752 2.75776 72.1065 2.46673 72.1423H2.46579Z" fill="#909090"/>
</svg>
