<svg width="182" height="82" viewBox="0 0 182 82" fill="none" xmlns="http://www.w3.org/2000/svg">
<mask id="mask0_36_367" style="mask-type:luminance" maskUnits="userSpaceOnUse" x="0" y="0" width="182" height="82">
<path d="M181.93 0.605957H0.121826V81.3436H181.93V0.605957Z" fill="white"/>
</mask>
<g mask="url(#mask0_36_367)">
<path d="M180.808 60.8728H172.77L181.103 35.107C181.34 34.3384 180.924 33.8069 180.158 33.8069H162.844C162.13 33.8069 161.72 34.2207 161.72 34.9305V39.3071C161.72 40.0205 162.134 40.4289 162.844 40.4289H169.935L161.552 66.1947C161.315 66.9634 161.731 67.4948 162.556 67.4948H180.817C181.531 67.4948 181.939 67.0811 181.939 66.3712V61.9946C181.93 61.2866 181.517 60.8728 180.808 60.8728Z" fill="#909090"/>
<path d="M159.122 62.232V34.9306C159.122 34.2173 158.708 33.807 157.998 33.807H151.321C150.552 33.807 150.138 34.2208 150.138 34.9306V37.2937H149.489C148.897 34.8111 147.124 33.3933 143.875 33.3933C138.97 33.3933 136.193 36.5839 136.193 47.1635V54.1957C136.193 64.7734 138.911 67.9052 143.875 67.9052C147.42 67.9052 149.371 66.2501 149.903 63.1772H150.616L151.385 66.4855C151.563 67.1365 151.975 67.4914 152.633 67.4914H158.838C159.666 67.4914 159.962 66.9564 159.842 66.243L159.122 62.232ZM150.138 55.9684C150.138 60.3397 149.425 61.2867 147.716 61.2867C146.061 61.2867 145.351 60.3397 145.351 56.0273V44.9163C145.351 40.5432 146.12 39.598 147.716 39.598C149.43 39.598 150.138 40.5432 150.138 44.9769V55.9684Z" fill="#909090"/>
<path d="M133.297 33.8655L126.857 38.4758H126.443V34.9302C126.443 34.2169 126.029 33.8066 125.32 33.8066H118.997C118.284 33.8066 117.874 34.2204 117.874 34.9302V66.3674C117.874 67.0808 118.287 67.491 118.997 67.491H125.733C126.502 67.491 126.857 67.0773 126.857 66.3674V47.5108L133.948 42.4297C134.483 42.016 134.661 41.661 134.661 41.0707V34.5753C134.656 33.6889 134.007 33.334 133.297 33.8655Z" fill="#909090"/>
<path d="M114.565 62.232V34.9306C114.565 34.2173 114.151 33.807 113.442 33.807H106.773C106.005 33.807 105.591 34.2208 105.591 34.9306V37.2937H104.942C104.351 34.8111 102.579 33.3933 99.3273 33.3933C94.4227 33.3933 91.6459 36.5839 91.6459 47.1635V54.1957C91.6459 64.7734 94.3639 67.9052 99.3273 67.9052C102.873 67.9052 104.824 66.2501 105.355 63.1772H106.069L106.836 66.4855C107.014 67.1365 107.428 67.4914 108.084 67.4914H114.264C115.091 67.4914 115.387 66.9564 115.268 66.243L114.565 62.232ZM105.582 55.9684C105.582 60.3397 104.868 61.2867 103.16 61.2867C101.505 61.2867 100.797 60.3397 100.797 56.0273V44.9163C100.797 40.5432 101.564 39.598 103.16 39.598C104.874 39.598 105.582 40.5432 105.582 44.9769V55.9684Z" fill="#909090"/>
<path d="M74.7956 22.5801H65.1043C64.3356 22.5801 63.9807 22.9938 63.9807 23.7019V66.3678C63.9807 67.0812 64.3374 67.4914 65.1043 67.4914H74.7956C84.4264 67.4914 88.8601 63.1183 88.8601 47.9891V42.0805C88.8601 26.5394 84.1321 22.5801 74.7956 22.5801ZM79.4041 52.1268C79.4041 58.7452 78.1557 60.0454 75.0311 60.0454H73.2583V29.8549H75.0275C78.1593 29.8549 79.4006 30.9784 79.4006 37.7734L79.4041 52.1268Z" fill="#909090"/>
<path d="M46.0372 12.5728L25.8269 0.932135C24.6463 0.218748 23.701 0.694911 23.701 2.11277V26.9333L43.7918 38.5151C44.9743 39.2285 44.9743 40.2879 43.7918 40.9977L25.8269 51.3418C24.6463 52.0552 23.701 51.5791 23.701 50.1612V26.9333L1.37025 39.8153C0.47852 40.3503 0.121826 40.9389 0.121826 41.943V66.644C0.121826 67.6481 0.47852 68.2491 1.37025 68.7717L22.4669 80.9456C23.3586 81.4807 24.0613 81.4807 24.9477 80.9456L46.0443 68.7717C46.9361 68.2366 47.2928 67.6481 47.2928 66.644V14.6951C47.2785 13.6964 46.9236 13.1043 46.0372 12.5728Z" fill="#909090"/>
</g>
</svg>
