<svg width="99" height="98" viewBox="0 0 99 98" fill="none" xmlns="http://www.w3.org/2000/svg">
<path d="M63.0733 17.9547L63.2038 18.0648L68.0168 22.8411L74.5428 23.3305C74.8405 23.355 75.1954 23.5793 75.2525 23.9872L84.1116 83.9166L59.0353 89.3413L12.7494 80.6699C12.7494 80.6699 18.6881 34.7348 18.9124 33.1073C19.2102 30.97 19.2836 30.9007 21.5555 30.1869L28.881 27.915C30.4472 21.2707 35.4478 8.18604 45.9098 8.18604C47.2762 8.18604 48.8588 8.92021 50.1395 10.6088L50.5188 10.5966C55.0096 10.5966 57.5629 14.4266 59.0108 18.591L61.4377 17.8405C61.764 17.7426 62.5716 17.6121 63.0692 17.9547H63.0733ZM50.5229 37.1861C50.5229 37.1861 48.4305 35.9747 44.2008 35.9747C33.2208 35.9747 27.7797 43.3083 27.7797 50.8867C27.7797 59.8926 36.7652 60.1373 36.7652 65.6151C36.7652 66.9407 35.8271 68.7558 33.5226 68.7558C29.9985 68.7558 25.8219 65.1665 25.8219 65.1665L23.6968 72.1983C23.6968 72.1983 27.7593 77.1417 35.7047 77.1417C42.3246 77.1417 47.2354 72.1575 47.2354 64.416C47.2354 54.5739 36.2839 52.9669 36.2839 48.7657C36.2839 47.9908 36.5287 44.9398 41.3987 44.9398C43.4897 44.9738 45.5477 45.4667 47.4271 46.3837L50.5229 37.1861ZM56.4575 19.3782C55.4664 16.3477 53.9246 13.7128 51.6079 13.4232C52.183 15.0751 52.546 17.1593 52.546 19.7453L52.5419 20.5937L56.4575 19.3782ZM48.7364 13.9371C46.1831 15.0302 43.2627 17.9343 41.7087 23.9464L49.7969 21.442V20.9893C49.7969 17.865 49.3809 15.5523 48.7364 13.9371ZM45.6284 10.9922C38.1071 10.9922 33.8856 20.8629 32.1073 26.9198L38.4987 24.9375C40.0201 17.0003 43.6135 13.0275 46.9703 11.4491C46.5758 11.1699 46.1074 11.0138 45.6243 11.0004L45.6284 10.9922Z" fill="#909090"/>
</svg>
