<svg width="113" height="20" viewBox="0 0 113 20" fill="none" xmlns="http://www.w3.org/2000/svg">
<path fill-rule="evenodd" clip-rule="evenodd" d="M77.509 20.01C75.6797 20.01 73.9997 19.5807 72.469 18.722C70.9384 17.8633 69.725 16.678 68.829 15.166C67.933 13.6353 67.485 11.9087 67.485 9.98599C67.485 8.08199 67.933 6.37399 68.829 4.86199C69.725 3.33132 70.9384 2.13666 72.469 1.27799C73.9997 0.419323 75.6797 -0.0100098 77.509 -0.0100098C79.357 -0.0100098 81.037 0.419323 82.549 1.27799C84.0797 2.13666 85.2837 3.33132 86.161 4.86199C87.057 6.37399 87.505 8.08199 87.505 9.98599C87.505 11.9087 87.057 13.6353 86.161 15.166C85.2837 16.678 84.0797 17.8633 82.549 18.722C81.0184 19.5807 79.3384 20.01 77.509 20.01ZM77.509 16.51C78.685 16.51 79.721 16.2487 80.617 15.726C81.513 15.1847 82.213 14.4193 82.717 13.43C83.221 12.4407 83.473 11.2927 83.473 9.98599C83.473 8.67932 83.221 7.54066 82.717 6.56999C82.213 5.58066 81.513 4.82466 80.617 4.30199C79.721 3.77932 78.685 3.51799 77.509 3.51799C76.333 3.51799 75.2877 3.77932 74.373 4.30199C73.477 4.82466 72.777 5.58066 72.273 6.56999C71.769 7.54066 71.517 8.67932 71.517 9.98599C71.517 11.2927 71.769 12.4407 72.273 13.43C72.777 14.4193 73.477 15.1847 74.373 15.726C75.2877 16.2487 76.333 16.51 77.509 16.51ZM14.252 6.31799C14.252 7.36332 14 8.34332 13.496 9.25799C13.0107 10.1727 12.236 10.91 11.172 11.47C10.1267 12.03 8.80133 12.31 7.196 12.31H3.92V19.814H0V9.14465H3.92V9.14599H7.028C8.11067 9.14599 8.91333 8.90332 9.436 8.41799C9.95867 7.91399 10.22 7.21399 10.22 6.31799C10.22 4.41399 9.156 3.46199 7.028 3.46199H3.92V3.46204H0V0.26999H7.196C8.708 0.26999 9.996 0.531323 11.06 1.05399C12.124 1.57666 12.9173 2.29532 13.44 3.20999C13.9813 4.12466 14.252 5.16066 14.252 6.31799ZM39.4072 0.26999V19.814H35.4872V11.498H27.1152V19.814H23.1952V0.26999H27.1152V8.30599H35.4872V0.26999H39.4072ZM59.7855 16.706H53.3455V0.26999H49.4255V19.814H59.7855V16.706ZM104.057 13.234L108.285 19.814H112.793L106.549 10.098L112.681 0.26999H108.257L104.449 6.82199L100.221 0.26999H95.7134L101.957 9.95799L95.7974 19.814H100.221L104.057 13.234Z" fill="#E53334"/>
</svg>
