<svg width="75" height="75" viewBox="0 0 75 75" fill="none" xmlns="http://www.w3.org/2000/svg">
<g clip-path="url(#clip0_16_87)">
<path d="M7.85334 41.7514H27.7772C30.0613 41.7514 31.9493 39.9109 32.0091 37.628L32.0091 37.6279C32.0644 35.5106 30.5293 33.7528 28.4911 33.4689L28.3881 33.4545H28.2842H9.60971C9.53463 33.4545 9.48055 33.4269 9.44277 33.3881C9.40499 33.3493 9.37865 33.2943 9.38063 33.2188C9.38505 33.0507 9.53602 32.9044 9.70273 32.9044H28.5998V32.9045L28.6124 32.9043C30.8796 32.8853 32.7497 31.0546 32.8093 28.7822M7.85334 41.7514L50.4182 15.5969C49.7738 14.8904 48.8699 14.4886 47.8327 14.4886H10.7337C10.5767 14.4886 10.4284 14.62 10.4128 14.7835L10.4107 14.8051L10.408 14.8266L10.2466 16.119H29.6849C31.9017 16.119 33.6624 17.9279 33.6045 20.1433L33.6045 20.1435C33.5471 22.3282 31.7409 24.0892 29.5548 24.0892H24.655L24.6589 24.0997H22.5081H1.80401C1.731 24.0997 1.65645 24.1285 1.59462 24.1887C1.53278 24.249 1.50194 24.3229 1.50002 24.3962C1.49817 24.4669 1.52269 24.5176 1.55734 24.5531C1.59197 24.5887 1.64166 24.6143 1.71188 24.6143H29.1218H29.2367L29.3502 24.6318C31.359 24.9412 32.8643 26.685 32.8093 28.7822M7.85334 41.7514V41.7533H6.35334H4.55324C4.38653 41.7533 4.23556 41.8996 4.23115 42.0678C4.22916 42.1434 4.25553 42.1984 4.29326 42.2371C4.33096 42.2758 4.38501 42.3035 4.46023 42.3035H6.01377H7.66396L7.50697 43.9462L6.9001 50.2962C6.89999 50.2974 6.89988 50.2986 6.89977 50.2999C6.80673 51.3419 7.12708 52.2839 7.7723 52.9914L7.77249 52.9916C8.41655 53.6981 9.32047 54.0999 10.3579 54.0999H11.6981H12.9585L13.1757 55.3415C13.6907 58.2863 16.2359 60.5113 19.3612 60.5113C22.5056 60.5113 25.2181 58.2565 25.897 55.2678L26.1622 54.1001H27.3597H44.0843C45.0512 54.1001 45.9953 53.7292 46.7538 53.0897L47.7856 52.2197L48.7594 53.1543C49.3876 53.7573 50.2282 54.1001 51.1846 54.1001H51.4597H52.7202L52.9373 55.3417C53.4521 58.2863 55.9973 60.5113 59.1229 60.5113C62.2672 60.5113 64.9798 58.2565 65.6586 55.2678L65.9239 54.1001H67.1213H68.2253C70.3207 54.1001 72.2269 52.3584 72.4167 50.2537L72.4167 50.2536L73.4947 38.3127C73.4952 38.2982 73.496 38.28 73.4973 38.2593L73.498 38.2494C73.4982 38.2465 73.4984 38.2436 73.4987 38.2409L73.4984 38.2301C73.4969 38.1602 73.4703 38.1075 73.4325 38.0704C73.3957 38.0342 73.3439 38.0084 73.2714 38.0084H72.8181H71.9052L71.4858 37.1976L64.4843 23.6612L64.4841 23.6607C64.4499 23.5946 64.3791 23.5445 64.2813 23.5444L52.3281 23.542L50.6273 23.5416L50.8402 21.8542L51.2926 18.2681C51.3795 17.2341 51.059 16.2998 50.4183 15.597L7.85334 41.7514ZM32.8093 28.7822C32.8093 28.7822 32.8093 28.7822 32.8093 28.7822L31.3098 28.7429L32.8093 28.7822ZM28.5998 31.4044H9.70273C8.72235 31.4044 7.90689 32.1991 7.88115 33.1795C7.85541 34.1598 8.62934 34.9545 9.60971 34.9545H28.2842L28.5998 31.4044ZM73.5041 38.1798C73.5041 38.1793 73.5042 38.1791 73.5041 38.1795L73.5041 38.1798ZM53.3948 53.9843L53.3948 53.9845C53.3089 57.2744 55.9247 59.9611 59.2159 59.9611C62.4764 59.9611 65.1838 57.3222 65.2691 54.063C65.3555 50.7727 62.7395 48.0858 59.4482 48.0858C56.1877 48.0858 53.4802 50.7249 53.3948 53.9843ZM65.6622 52.3847L65.929 53.5499H67.1244H68.3185C70.1237 53.5499 71.7066 52.0858 71.8679 50.2961L72.7796 40.1936L72.9271 38.5588H71.2857H61.2853C60.2478 38.5588 59.3435 38.1567 58.6994 37.45L58.6992 37.4498C58.0534 36.7416 57.7332 35.7982 57.8274 34.7547L57.8275 34.7546L58.6422 25.728L58.7897 24.0935L57.1486 24.0932L52.0082 24.0921L50.6372 24.0918L50.5139 25.4573L48.2757 50.2534L48.2757 50.2536C48.2008 51.0849 48.442 51.9338 49.0353 52.5842C49.6257 53.2316 50.4447 53.5499 51.2776 53.5499H51.6431H52.7794L53.087 52.4561C53.8828 49.627 56.5131 47.5356 59.5411 47.5356C62.5526 47.5356 65.0249 49.6011 65.6622 52.3847ZM13.6332 53.9843C13.547 57.2744 16.1632 59.9611 19.4543 59.9611C22.7148 59.9611 25.4222 57.3222 25.5075 54.0629C25.5937 50.7728 22.9779 48.0858 19.6866 48.0858C16.4261 48.0858 13.7185 50.7249 13.6332 53.9843Z" stroke="#E53334" stroke-width="3"/>
</g>
<defs>
<clipPath id="clip0_16_87">
<rect width="75" height="75" fill="white"/>
</clipPath>
</defs>
</svg>
