<svg width="76" height="75" viewBox="0 0 76 75" fill="none" xmlns="http://www.w3.org/2000/svg">
<path d="M16.2732 37.5C16.2732 39.6004 12.7358 42.1153 13.2609 44.0499C13.786 46.0397 18.1249 46.4542 19.1474 48.223C20.17 49.9917 18.3736 53.9437 19.8107 55.4085C21.2478 56.8456 25.1998 55.0492 26.9962 56.0717C28.7373 57.0943 29.1519 61.4056 31.1693 61.9583C33.1039 62.4834 35.6188 58.9459 37.7192 58.9459C39.8196 58.9459 42.3345 62.4834 44.269 61.9583C46.2589 61.4332 46.6734 57.0943 48.4421 56.0717C50.2109 55.0492 54.1629 56.8456 55.6276 55.4085C57.0647 53.9714 55.2684 50.0193 56.2909 48.223C57.3135 46.4819 61.6248 46.0673 62.1775 44.0499C62.7026 42.1153 59.1651 39.6004 59.1651 37.5C59.1651 35.3996 62.7026 32.8847 62.1775 30.9502C61.6524 28.9603 57.3135 28.5458 56.2909 26.777C55.2684 25.0083 57.0647 21.0563 55.6276 19.5915C54.1905 18.1544 50.2385 19.9508 48.4421 18.9283C46.701 17.9057 46.2865 13.5944 44.269 13.0417C42.3345 12.5166 39.8196 16.0541 37.7192 16.0541C35.6188 16.0541 33.1039 12.5166 31.1693 13.0417C29.1795 13.5668 28.765 17.9057 26.9962 18.9283C25.2275 19.9508 21.2755 18.1544 19.8107 19.5915C18.3736 21.0286 20.17 24.9807 19.1474 26.777C18.1249 28.5181 13.8136 28.9327 13.2609 30.9502C12.7358 32.8847 16.2732 35.3996 16.2732 37.5Z" stroke="#E53334" stroke-width="3" stroke-miterlimit="10"/>
<path d="M37.6916 51.7882C45.5827 51.7882 51.9797 45.3912 51.9797 37.5001C51.9797 29.609 45.5827 23.212 37.6916 23.212C29.8005 23.212 23.4035 29.609 23.4035 37.5001C23.4035 45.3912 29.8005 51.7882 37.6916 51.7882Z" stroke="#E53334" stroke-width="3" stroke-miterlimit="10"/>
<path d="M33.1315 37.7487L36.0057 40.6229L42.2516 34.377" stroke="#E53334" stroke-width="3" stroke-miterlimit="10" stroke-linecap="round"/>
</svg>
