<svg width="76" height="75" viewBox="0 0 76 75" fill="none" xmlns="http://www.w3.org/2000/svg">
<g clip-path="url(#clip0_18_168)">
<mask id="path-1-outside-1_18_168" maskUnits="userSpaceOnUse" x="-1" y="1.00894" width="77" height="73" fill="black">
<rect fill="white" x="-1" y="1.00894" width="77" height="73"/>
<path d="M64.8597 28.8616C64.8597 13.9955 52.7661 2.00894 37.8348 2.00894C22.9036 2.00894 10.8099 13.9955 10.8099 28.7947C10.8099 28.7947 10.8099 28.7947 10.8099 28.8616C4.79692 29.1964 0 34.1518 0 40.1786V41.5179C0 47.8125 5.13473 52.9018 11.4856 52.9018H12.0936L16.8905 60.4688C20.2687 65.8259 26.0114 68.9732 32.3623 68.9732H33.3082C33.9162 71.25 36.0106 72.9911 38.5104 72.9911C41.4832 72.9911 43.9154 70.5804 43.9154 67.6339C43.9154 64.6875 41.4832 62.2768 38.5104 62.2768C36.0106 62.2768 33.9162 64.0179 33.3082 66.2946H32.3623C26.9573 66.2946 22.0253 63.5491 19.1877 58.9955L15.2691 52.9018H16.2149C17.7013 52.9018 18.9174 51.6964 18.9174 50.2232V31.4732C18.9174 30 17.7013 28.7947 16.2149 28.7947H13.5124C13.5124 15.4688 24.3899 4.68751 37.8348 4.68751C51.2797 4.68751 62.1572 15.4688 62.1572 28.7947H59.4547C57.9683 28.7947 56.7522 30 56.7522 31.4732V50.2232C56.7522 51.6964 57.9683 52.9018 59.4547 52.9018H64.1841C70.5349 52.9018 75.6696 47.8125 75.6696 41.5179V40.1786C75.6696 34.1518 70.8727 29.1964 64.8597 28.8616ZM38.5104 64.9554C39.9968 64.9554 41.2129 66.1607 41.2129 67.6339C41.2129 69.1071 39.9968 70.3125 38.5104 70.3125C37.0241 70.3125 35.808 69.1071 35.808 67.6339C35.808 66.1607 37.0241 64.9554 38.5104 64.9554ZM16.2149 31.4732V50.2232H11.4856C6.62109 50.2232 2.70249 46.3393 2.70249 41.5179V40.1786C2.70249 35.3572 6.62109 31.4732 11.4856 31.4732H16.2149ZM72.9672 41.5179C72.9672 46.3393 69.0485 50.2232 64.1841 50.2232H59.4547V31.4732H64.1841C69.0485 31.4732 72.9672 35.3572 72.9672 40.1786V41.5179Z"/>
</mask>
<path d="M64.8597 28.8616C64.8597 13.9955 52.7661 2.00894 37.8348 2.00894C22.9036 2.00894 10.8099 13.9955 10.8099 28.7947C10.8099 28.7947 10.8099 28.7947 10.8099 28.8616C4.79692 29.1964 0 34.1518 0 40.1786V41.5179C0 47.8125 5.13473 52.9018 11.4856 52.9018H12.0936L16.8905 60.4688C20.2687 65.8259 26.0114 68.9732 32.3623 68.9732H33.3082C33.9162 71.25 36.0106 72.9911 38.5104 72.9911C41.4832 72.9911 43.9154 70.5804 43.9154 67.6339C43.9154 64.6875 41.4832 62.2768 38.5104 62.2768C36.0106 62.2768 33.9162 64.0179 33.3082 66.2946H32.3623C26.9573 66.2946 22.0253 63.5491 19.1877 58.9955L15.2691 52.9018H16.2149C17.7013 52.9018 18.9174 51.6964 18.9174 50.2232V31.4732C18.9174 30 17.7013 28.7947 16.2149 28.7947H13.5124C13.5124 15.4688 24.3899 4.68751 37.8348 4.68751C51.2797 4.68751 62.1572 15.4688 62.1572 28.7947H59.4547C57.9683 28.7947 56.7522 30 56.7522 31.4732V50.2232C56.7522 51.6964 57.9683 52.9018 59.4547 52.9018H64.1841C70.5349 52.9018 75.6696 47.8125 75.6696 41.5179V40.1786C75.6696 34.1518 70.8727 29.1964 64.8597 28.8616ZM38.5104 64.9554C39.9968 64.9554 41.2129 66.1607 41.2129 67.6339C41.2129 69.1071 39.9968 70.3125 38.5104 70.3125C37.0241 70.3125 35.808 69.1071 35.808 67.6339C35.808 66.1607 37.0241 64.9554 38.5104 64.9554ZM16.2149 31.4732V50.2232H11.4856C6.62109 50.2232 2.70249 46.3393 2.70249 41.5179V40.1786C2.70249 35.3572 6.62109 31.4732 11.4856 31.4732H16.2149ZM72.9672 41.5179C72.9672 46.3393 69.0485 50.2232 64.1841 50.2232H59.4547V31.4732H64.1841C69.0485 31.4732 72.9672 35.3572 72.9672 40.1786V41.5179Z" fill="#E53334"/>
<path d="M64.8597 28.8616H64.6597V29.0508L64.8486 29.0613L64.8597 28.8616ZM10.8099 28.8616L10.8211 29.0613L11.0099 29.0508V28.8616H10.8099ZM12.0936 52.9018L12.2625 52.7947L12.2036 52.7018H12.0936V52.9018ZM16.8905 60.4688L17.0597 60.3621L17.0595 60.3617L16.8905 60.4688ZM33.3082 68.9732L33.5014 68.9216L33.4618 68.7732H33.3082V68.9732ZM33.3082 66.2946V66.4947H33.4618L33.5014 66.3463L33.3082 66.2946ZM19.1877 58.9955L19.3574 58.8898L19.3559 58.8874L19.1877 58.9955ZM15.2691 52.9018V52.7018H14.9027L15.1008 53.01L15.2691 52.9018ZM13.5124 28.7947H13.3124V28.9947H13.5124V28.7947ZM62.1572 28.7947V28.9947H62.3572V28.7947H62.1572ZM16.2149 31.4732H16.4149V31.2732H16.2149V31.4732ZM16.2149 50.2232V50.4232H16.4149V50.2232H16.2149ZM59.4547 50.2232H59.2547V50.4232H59.4547V50.2232ZM59.4547 31.4732V31.2732H59.2547V31.4732H59.4547ZM65.0597 28.8616C65.0597 13.8837 52.8752 1.80894 37.8348 1.80894V2.20894C52.657 2.20894 64.6597 14.1074 64.6597 28.8616H65.0597ZM37.8348 1.80894C22.7948 1.80894 10.6099 13.8834 10.6099 28.7947H11.0099C11.0099 14.1077 23.0124 2.20894 37.8348 2.20894V1.80894ZM10.8099 28.7947C11.0099 28.7947 10.8099 28.7947 10.6099 28.7947V28.7947C10.6099 28.7947 10.6099 28.7947 10.6099 28.7947V28.7947C10.6099 28.7947 10.6099 28.7947 10.6099 28.7947C10.6099 28.7947 10.6099 28.7947 10.6099 28.7947V28.7947C10.6099 28.7947 10.6099 28.7947 10.6099 28.7947C10.6099 28.7947 10.6099 28.7947 10.6099 28.7947V28.7947C10.6099 28.7947 10.6099 28.7947 10.6099 28.7947C10.6099 28.7947 10.6099 28.7947 10.6099 28.7947C10.6099 28.7947 10.6099 28.7947 10.6099 28.7947C10.6099 28.7947 10.6099 28.7947 10.6099 28.7947C10.6099 28.7947 10.6099 28.7947 10.6099 28.7947V28.7947V28.7947C10.6099 28.7947 10.6099 28.7947 10.6099 28.7947C10.6099 28.7947 10.6099 28.7947 10.6099 28.7947V28.7947C10.6099 28.7947 10.6099 28.7947 10.6099 28.7947V28.7947C10.6099 28.7947 10.6099 28.7947 10.6099 28.7947C10.6099 28.7947 10.6099 28.7947 10.6099 28.7947V28.7947C10.6099 28.7947 10.6099 28.7947 10.6099 28.7947C10.6099 28.7947 10.6099 28.7947 10.6099 28.7947C10.6099 28.7947 10.6099 28.7947 10.6099 28.7947C10.6099 28.7947 10.6099 28.7947 10.6099 28.7947C10.6099 28.7947 10.6099 28.7947 10.6099 28.7947C10.6099 28.7947 10.6099 28.7947 10.6099 28.7947C10.6099 28.7947 10.6099 28.7947 10.6099 28.7947C10.6099 28.7947 10.6099 28.7947 10.6099 28.7947C10.6099 28.7947 10.6099 28.7947 10.6099 28.7947C10.6099 28.7947 10.6099 28.7948 10.6099 28.7948C10.6099 28.7948 10.6099 28.7948 10.6099 28.7948C10.6099 28.7948 10.6099 28.7948 10.6099 28.7948C10.6099 28.7948 10.6099 28.7948 10.6099 28.7948C10.6099 28.7948 10.6099 28.7948 10.6099 28.7948C10.6099 28.7948 10.6099 28.7948 10.6099 28.7948C10.6099 28.7948 10.6099 28.7948 10.6099 28.7948C10.6099 28.7948 10.6099 28.7948 10.6099 28.7948C10.6099 28.7948 10.6099 28.7948 10.6099 28.7948C10.6099 28.7948 10.6099 28.7948 10.6099 28.7948C10.6099 28.7948 10.6099 28.7948 10.6099 28.7948C10.6099 28.7948 10.6099 28.7948 10.6099 28.7948C10.6099 28.7948 10.6099 28.7948 10.6099 28.7948C10.6099 28.7948 10.6099 28.7948 10.6099 28.7948C10.6099 28.7948 10.6099 28.7948 10.6099 28.7948C10.6099 28.7948 10.6099 28.7948 10.6099 28.7948C10.6099 28.7949 10.6099 28.7949 10.6099 28.7949C10.6099 28.7949 10.6099 28.7949 10.6099 28.7949C10.6099 28.7949 10.6099 28.7949 10.6099 28.7949C10.6099 28.7949 10.6099 28.7949 10.6099 28.7949C10.6099 28.7949 10.6099 28.7949 10.6099 28.7949C10.6099 28.7949 10.6099 28.7949 10.6099 28.7949C10.6099 28.7949 10.6099 28.7949 10.6099 28.7949C10.6099 28.7949 10.6099 28.7949 10.6099 28.7949C10.6099 28.7949 10.6099 28.7949 10.6099 28.7949C10.6099 28.7949 10.6099 28.7949 10.6099 28.7949C10.6099 28.7949 10.6099 28.7949 10.6099 28.795C10.6099 28.795 10.6099 28.795 10.6099 28.795C10.6099 28.795 10.6099 28.795 10.6099 28.795C10.6099 28.795 10.6099 28.795 10.6099 28.795C10.6099 28.795 10.6099 28.795 10.6099 28.795C10.6099 28.795 10.6099 28.795 10.6099 28.795C10.6099 28.795 10.6099 28.795 10.6099 28.795C10.6099 28.795 10.6099 28.795 10.6099 28.795C10.6099 28.795 10.6099 28.795 10.6099 28.795C10.6099 28.795 10.6099 28.7951 10.6099 28.7951C10.6099 28.7951 10.6099 28.7951 10.6099 28.7951C10.6099 28.7951 10.6099 28.7951 10.6099 28.7951C10.6099 28.7951 10.6099 28.7951 10.6099 28.7951C10.6099 28.7951 10.6099 28.7951 10.6099 28.7951C10.6099 28.7951 10.6099 28.7951 10.6099 28.7951C10.6099 28.7951 10.6099 28.7951 10.6099 28.7951C10.6099 28.7951 10.6099 28.7951 10.6099 28.7952C10.6099 28.7952 10.6099 28.7952 10.6099 28.7952C10.6099 28.7952 10.6099 28.7952 10.6099 28.7952C10.6099 28.7952 10.6099 28.7952 10.6099 28.7952C10.6099 28.7952 10.6099 28.7952 10.6099 28.7952C10.6099 28.7952 10.6099 28.7952 10.6099 28.7952C10.6099 28.7952 10.6099 28.7952 10.6099 28.7952C10.6099 28.7953 10.6099 28.7953 10.6099 28.7953C10.6099 28.7953 10.6099 28.7953 10.6099 28.7953C10.6099 28.7953 10.6099 28.7953 10.6099 28.7953C10.6099 28.7953 10.6099 28.7953 10.6099 28.7953C10.6099 28.7953 10.6099 28.7953 10.6099 28.7953C10.6099 28.7953 10.6099 28.7953 10.6099 28.7954C10.6099 28.7954 10.6099 28.7954 10.6099 28.7954C10.6099 28.7954 10.6099 28.7954 10.6099 28.7954C10.6099 28.7954 10.6099 28.7954 10.6099 28.7954C10.6099 28.7954 10.6099 28.7954 10.6099 28.7954C10.6099 28.7954 10.6099 28.7954 10.6099 28.7955C10.6099 28.7955 10.6099 28.7955 10.6099 28.7955C10.6099 28.7955 10.6099 28.7955 10.6099 28.7955C10.6099 28.7955 10.6099 28.7955 10.6099 28.7955C10.6099 28.7955 10.6099 28.7955 10.6099 28.7955C10.6099 28.7955 10.6099 28.7956 10.6099 28.7956C10.6099 28.7956 10.6099 28.7956 10.6099 28.7956C10.6099 28.7956 10.6099 28.7956 10.6099 28.7956C10.6099 28.7956 10.6099 28.7956 10.6099 28.7956C10.6099 28.7956 10.6099 28.7956 10.6099 28.7957C10.6099 28.7957 10.6099 28.7957 10.6099 28.7957C10.6099 28.7957 10.6099 28.7957 10.6099 28.7957C10.6099 28.7957 10.6099 28.7957 10.6099 28.7957C10.6099 28.7957 10.6099 28.7957 10.6099 28.7957C10.6099 28.7958 10.6099 28.7958 10.6099 28.7958C10.6099 28.7958 10.6099 28.7958 10.6099 28.7958C10.6099 28.7958 10.6099 28.7958 10.6099 28.7958C10.6099 28.7958 10.6099 28.7958 10.6099 28.7959C10.6099 28.7959 10.6099 28.7959 10.6099 28.7959C10.6099 28.7959 10.6099 28.7959 10.6099 28.7959C10.6099 28.7959 10.6099 28.7959 10.6099 28.7959C10.6099 28.7959 10.6099 28.796 10.6099 28.796C10.6099 28.796 10.6099 28.796 10.6099 28.796C10.6099 28.796 10.6099 28.796 10.6099 28.796C10.6099 28.796 10.6099 28.796 10.6099 28.7961C10.6099 28.7961 10.6099 28.7961 10.6099 28.7961C10.6099 28.7961 10.6099 28.7961 10.6099 28.7961C10.6099 28.7961 10.6099 28.7961 10.6099 28.7961C10.6099 28.7962 10.6099 28.7962 10.6099 28.7962C10.6099 28.7962 10.6099 28.7962 10.6099 28.7962C10.6099 28.7962 10.6099 28.7962 10.6099 28.7962C10.6099 28.7962 10.6099 28.7963 10.6099 28.7963C10.6099 28.7963 10.6099 28.7963 10.6099 28.7963C10.6099 28.7963 10.6099 28.7963 10.6099 28.7963C10.6099 28.7963 10.6099 28.7964 10.6099 28.7964C10.6099 28.7964 10.6099 28.7964 10.6099 28.7964C10.6099 28.7964 10.6099 28.7964 10.6099 28.7964C10.6099 28.7965 10.6099 28.7965 10.6099 28.7965C10.6099 28.7965 10.6099 28.7965 10.6099 28.7965C10.6099 28.7965 10.6099 28.7965 10.6099 28.7965C10.6099 28.7966 10.6099 28.7966 10.6099 28.7966C10.6099 28.7966 10.6099 28.7966 10.6099 28.7966C10.6099 28.7966 10.6099 28.7966 10.6099 28.7967C10.6099 28.7967 10.6099 28.7967 10.6099 28.7967C10.6099 28.7967 10.6099 28.7967 10.6099 28.7967C10.6099 28.7967 10.6099 28.7968 10.6099 28.7968C10.6099 28.7968 10.6099 28.7968 10.6099 28.7968C10.6099 28.7968 10.6099 28.7968 10.6099 28.7969C10.6099 28.7969 10.6099 28.7969 10.6099 28.7969C10.6099 28.7969 10.6099 28.7969 10.6099 28.7969C10.6099 28.7969 10.6099 28.797 10.6099 28.797C10.6099 28.797 10.6099 28.797 10.6099 28.797C10.6099 28.797 10.6099 28.797 10.6099 28.7971C10.6099 28.7971 10.6099 28.7971 10.6099 28.7971C10.6099 28.7971 10.6099 28.7971 10.6099 28.7971C10.6099 28.7972 10.6099 28.7972 10.6099 28.7972C10.6099 28.7972 10.6099 28.7972 10.6099 28.7972C10.6099 28.7973 10.6099 28.7973 10.6099 28.7973C10.6099 28.7973 10.6099 28.7973 10.6099 28.7973C10.6099 28.7973 10.6099 28.7974 10.6099 28.7974C10.6099 28.7974 10.6099 28.7974 10.6099 28.7974C10.6099 28.7974 10.6099 28.7975 10.6099 28.7975C10.6099 28.7975 10.6099 28.7975 10.6099 28.7975C10.6099 28.7975 10.6099 28.7975 10.6099 28.7976C10.6099 28.7976 10.6099 28.7976 10.6099 28.7976C10.6099 28.7976 10.6099 28.7976 10.6099 28.7977C10.6099 28.7977 10.6099 28.7977 10.6099 28.7977C10.6099 28.7977 10.6099 28.7977 10.6099 28.7978C10.6099 28.7978 10.6099 28.7978 10.6099 28.7978C10.6099 28.7978 10.6099 28.7978 10.6099 28.7979C10.6099 28.7979 10.6099 28.7979 10.6099 28.7979C10.6099 28.7979 10.6099 28.798 10.6099 28.798C10.6099 28.798 10.6099 28.798 10.6099 28.798C10.6099 28.798 10.6099 28.7981 10.6099 28.7981C10.6099 28.7981 10.6099 28.7981 10.6099 28.7981C10.6099 28.7981 10.6099 28.7982 10.6099 28.7982C10.6099 28.7982 10.6099 28.7982 10.6099 28.7982C10.6099 28.7983 10.6099 28.7983 10.6099 28.7983C10.6099 28.7983 10.6099 28.7983 10.6099 28.7984C10.6099 28.7984 10.6099 28.7984 10.6099 28.7984C10.6099 28.7984 10.6099 28.7984 10.6099 28.7985C10.6099 28.7985 10.6099 28.7985 10.6099 28.7985C10.6099 28.7985 10.6099 28.7986 10.6099 28.7986C10.6099 28.7986 10.6099 28.7986 10.6099 28.7986C10.6099 28.7987 10.6099 28.7987 10.6099 28.7987C10.6099 28.7987 10.6099 28.7987 10.6099 28.7988C10.6099 28.7988 10.6099 28.7988 10.6099 28.7988C10.6099 28.7988 10.6099 28.7989 10.6099 28.7989C10.6099 28.7989 10.6099 28.7989 10.6099 28.799C10.6099 28.799 10.6099 28.799 10.6099 28.799C10.6099 28.799 10.6099 28.7991 10.6099 28.7991C10.6099 28.7991 10.6099 28.7991 10.6099 28.7991C10.6099 28.7992 10.6099 28.7992 10.6099 28.7992C10.6099 28.7992 10.6099 28.7993 10.6099 28.7993C10.6099 28.7993 10.6099 28.7993 10.6099 28.7993C10.6099 28.7994 10.6099 28.7994 10.6099 28.7994C10.6099 28.7994 10.6099 28.7995 10.6099 28.7995C10.6099 28.7995 10.6099 28.7995 10.6099 28.7995C10.6099 28.7996 10.6099 28.7996 10.6099 28.7996C10.6099 28.7996 10.6099 28.7997 10.6099 28.7997C10.6099 28.7997 10.6099 28.7997 10.6099 28.7998C10.6099 28.7998 10.6099 28.7998 10.6099 28.7998C10.6099 28.7998 10.6099 28.7999 10.6099 28.7999C10.6099 28.7999 10.6099 28.7999 10.6099 28.8C10.6099 28.8 10.6099 28.8 10.6099 28.8C10.6099 28.8001 10.6099 28.8001 10.6099 28.8001C10.6099 28.8001 10.6099 28.8002 10.6099 28.8002C10.6099 28.8002 10.6099 28.8002 10.6099 28.8003C10.6099 28.8003 10.6099 28.8003 10.6099 28.8003C10.6099 28.8004 10.6099 28.8004 10.6099 28.8004C10.6099 28.8004 10.6099 28.8005 10.6099 28.8005C10.6099 28.8005 10.6099 28.8005 10.6099 28.8006C10.6099 28.8006 10.6099 28.8006 10.6099 28.8006C10.6099 28.8007 10.6099 28.8007 10.6099 28.8007C10.6099 28.8008 10.6099 28.8008 10.6099 28.8008C10.6099 28.8008 10.6099 28.8009 10.6099 28.8009C10.6099 28.8009 10.6099 28.8009 10.6099 28.801C10.6099 28.801 10.6099 28.801 10.6099 28.801C10.6099 28.8011 10.6099 28.8011 10.6099 28.8011C10.6099 28.8012 10.6099 28.8012 10.6099 28.8012C10.6099 28.8012 10.6099 28.8013 10.6099 28.8013C10.6099 28.8013 10.6099 28.8014 10.6099 28.8014C10.6099 28.8014 10.6099 28.8014 10.6099 28.8015C10.6099 28.8015 10.6099 28.8015 10.6099 28.8015C10.6099 28.8016 10.6099 28.8016 10.6099 28.8016C10.6099 28.8017 10.6099 28.8017 10.6099 28.8017C10.6099 28.8018 10.6099 28.8018 10.6099 28.8018C10.6099 28.8018 10.6099 28.8019 10.6099 28.8019C10.6099 28.8019 10.6099 28.802 10.6099 28.802C10.6099 28.802 10.6099 28.8021 10.6099 28.8021C10.6099 28.8021 10.6099 28.8021 10.6099 28.8022C10.6099 28.8022 10.6099 28.8022 10.6099 28.8023C10.6099 28.8023 10.6099 28.8023 10.6099 28.8024C10.6099 28.8024 10.6099 28.8024 10.6099 28.8024C10.6099 28.8025 10.6099 28.8025 10.6099 28.8025C10.6099 28.8026 10.6099 28.8026 10.6099 28.8026C10.6099 28.8027 10.6099 28.8027 10.6099 28.8027C10.6099 28.8028 10.6099 28.8028 10.6099 28.8028C10.6099 28.8029 10.6099 28.8029 10.6099 28.8029C10.6099 28.803 10.6099 28.803 10.6099 28.803C10.6099 28.8031 10.6099 28.8031 10.6099 28.8031C10.6099 28.8032 10.6099 28.8032 10.6099 28.8032C10.6099 28.8033 10.6099 28.8033 10.6099 28.8033C10.6099 28.8034 10.6099 28.8034 10.6099 28.8034C10.6099 28.8035 10.6099 28.8035 10.6099 28.8035C10.6099 28.8036 10.6099 28.8036 10.6099 28.8036C10.6099 28.8037 10.6099 28.8037 10.6099 28.8037C10.6099 28.8038 10.6099 28.8038 10.6099 28.8038C10.6099 28.8039 10.6099 28.8039 10.6099 28.8039C10.6099 28.804 10.6099 28.804 10.6099 28.804C10.6099 28.8041 10.6099 28.8041 10.6099 28.8041C10.6099 28.8042 10.6099 28.8042 10.6099 28.8043C10.6099 28.8043 10.6099 28.8043 10.6099 28.8044C10.6099 28.8044 10.6099 28.8044 10.6099 28.8045C10.6099 28.8045 10.6099 28.8045 10.6099 28.8046C10.6099 28.8046 10.6099 28.8047 10.6099 28.8047C10.6099 28.8047 10.6099 28.8048 10.6099 28.8048C10.6099 28.8048 10.6099 28.8049 10.6099 28.8049C10.6099 28.805 10.6099 28.805 10.6099 28.805C10.6099 28.8051 10.6099 28.8051 10.6099 28.8051C10.6099 28.8052 10.6099 28.8052 10.6099 28.8053C10.6099 28.8053 10.6099 28.8053 10.6099 28.8054C10.6099 28.8054 10.6099 28.8055 10.6099 28.8055C10.6099 28.8055 10.6099 28.8056 10.6099 28.8056C10.6099 28.8056 10.6099 28.8057 10.6099 28.8057C10.6099 28.8058 10.6099 28.8058 10.6099 28.8058C10.6099 28.8059 10.6099 28.8059 10.6099 28.806C10.6099 28.806 10.6099 28.806 10.6099 28.8061C10.6099 28.8061 10.6099 28.8062 10.6099 28.8062C10.6099 28.8062 10.6099 28.8063 10.6099 28.8063C10.6099 28.8064 10.6099 28.8064 10.6099 28.8064C10.6099 28.8065 10.6099 28.8065 10.6099 28.8066C10.6099 28.8066 10.6099 28.8067 10.6099 28.8067C10.6099 28.8067 10.6099 28.8068 10.6099 28.8068C10.6099 28.8069 10.6099 28.8069 10.6099 28.8069C10.6099 28.807 10.6099 28.807 10.6099 28.8071C10.6099 28.8071 10.6099 28.8072 10.6099 28.8072C10.6099 28.8072 10.6099 28.8073 10.6099 28.8073C10.6099 28.8074 10.6099 28.8074 10.6099 28.8075C10.6099 28.8075 10.6099 28.8075 10.6099 28.8076C10.6099 28.8076 10.6099 28.8077 10.6099 28.8077C10.6099 28.8078 10.6099 28.8078 10.6099 28.8079C10.6099 28.8079 10.6099 28.8079 10.6099 28.808C10.6099 28.808 10.6099 28.8081 10.6099 28.8081C10.6099 28.8082 10.6099 28.8082 10.6099 28.8083C10.6099 28.8083 10.6099 28.8083 10.6099 28.8084C10.6099 28.8084 10.6099 28.8085 10.6099 28.8085C10.6099 28.8086 10.6099 28.8086 10.6099 28.8087C10.6099 28.8087 10.6099 28.8088 10.6099 28.8088C10.6099 28.8089 10.6099 28.8089 10.6099 28.8089C10.6099 28.809 10.6099 28.809 10.6099 28.8091C10.6099 28.8091 10.6099 28.8092 10.6099 28.8092C10.6099 28.8093 10.6099 28.8093 10.6099 28.8094C10.6099 28.8094 10.6099 28.8095 10.6099 28.8095C10.6099 28.8096 10.6099 28.8096 10.6099 28.8097C10.6099 28.8097 10.6099 28.8098 10.6099 28.8098C10.6099 28.8099 10.6099 28.8099 10.6099 28.81C10.6099 28.81 10.6099 28.8101 10.6099 28.8101C10.6099 28.8101 10.6099 28.8102 10.6099 28.8102C10.6099 28.8103 10.6099 28.8103 10.6099 28.8104C10.6099 28.8104 10.6099 28.8105 10.6099 28.8105C10.6099 28.8106 10.6099 28.8106 10.6099 28.8107C10.6099 28.8107 10.6099 28.8108 10.6099 28.8108C10.6099 28.8109 10.6099 28.811 10.6099 28.811C10.6099 28.8111 10.6099 28.8111 10.6099 28.8112C10.6099 28.8112 10.6099 28.8113 10.6099 28.8113C10.6099 28.8114 10.6099 28.8114 10.6099 28.8115C10.6099 28.8115 10.6099 28.8116 10.6099 28.8116C10.6099 28.8117 10.6099 28.8117 10.6099 28.8118C10.6099 28.8118 10.6099 28.8119 10.6099 28.8119C10.6099 28.812 10.6099 28.812 10.6099 28.8121C10.6099 28.8122 10.6099 28.8122 10.6099 28.8123C10.6099 28.8123 10.6099 28.8124 10.6099 28.8124C10.6099 28.8125 10.6099 28.8125 10.6099 28.8126C10.6099 28.8126 10.6099 28.8127 10.6099 28.8127C10.6099 28.8128 10.6099 28.8129 10.6099 28.8129C10.6099 28.813 10.6099 28.813 10.6099 28.8131C10.6099 28.8131 10.6099 28.8132 10.6099 28.8132C10.6099 28.8133 10.6099 28.8134 10.6099 28.8134C10.6099 28.8135 10.6099 28.8135 10.6099 28.8136C10.6099 28.8136 10.6099 28.8137 10.6099 28.8137C10.6099 28.8138 10.6099 28.8139 10.6099 28.8139C10.6099 28.814 10.6099 28.814 10.6099 28.8141C10.6099 28.8141 10.6099 28.8142 10.6099 28.8143C10.6099 28.8143 10.6099 28.8144 10.6099 28.8144C10.6099 28.8145 10.6099 28.8146 10.6099 28.8146C10.6099 28.8147 10.6099 28.8147 10.6099 28.8148C10.6099 28.8148 10.6099 28.8149 10.6099 28.815C10.6099 28.815 10.6099 28.8151 10.6099 28.8151C10.6099 28.8152 10.6099 28.8153 10.6099 28.8153C10.6099 28.8154 10.6099 28.8154 10.6099 28.8155C10.6099 28.8156 10.6099 28.8156 10.6099 28.8157C10.6099 28.8157 10.6099 28.8158 10.6099 28.8159C10.6099 28.8159 10.6099 28.816 10.6099 28.816C10.6099 28.8161 10.6099 28.8162 10.6099 28.8162C10.6099 28.8163 10.6099 28.8164 10.6099 28.8164C10.6099 28.8165 10.6099 28.8165 10.6099 28.8166C10.6099 28.8167 10.6099 28.8167 10.6099 28.8168C10.6099 28.8168 10.6099 28.8169 10.6099 28.817C10.6099 28.817 10.6099 28.8171 10.6099 28.8172C10.6099 28.8172 10.6099 28.8173 10.6099 28.8174C10.6099 28.8174 10.6099 28.8175 10.6099 28.8175C10.6099 28.8176 10.6099 28.8177 10.6099 28.8177C10.6099 28.8178 10.6099 28.8179 10.6099 28.8179C10.6099 28.818 10.6099 28.8181 10.6099 28.8181C10.6099 28.8182 10.6099 28.8183 10.6099 28.8183C10.6099 28.8184 10.6099 28.8185 10.6099 28.8185C10.6099 28.8186 10.6099 28.8186 10.6099 28.8187C10.6099 28.8188 10.6099 28.8188 10.6099 28.8189C10.6099 28.819 10.6099 28.819 10.6099 28.8191C10.6099 28.8192 10.6099 28.8192 10.6099 28.8193C10.6099 28.8194 10.6099 28.8195 10.6099 28.8195C10.6099 28.8196 10.6099 28.8197 10.6099 28.8197C10.6099 28.8198 10.6099 28.8199 10.6099 28.8199C10.6099 28.82 10.6099 28.8201 10.6099 28.8201C10.6099 28.8202 10.6099 28.8203 10.6099 28.8203C10.6099 28.8204 10.6099 28.8205 10.6099 28.8205C10.6099 28.8206 10.6099 28.8207 10.6099 28.8208C10.6099 28.8208 10.6099 28.8209 10.6099 28.821C10.6099 28.821 10.6099 28.8211 10.6099 28.8212C10.6099 28.8212 10.6099 28.8213 10.6099 28.8214C10.6099 28.8215 10.6099 28.8215 10.6099 28.8216C10.6099 28.8217 10.6099 28.8217 10.6099 28.8218C10.6099 28.8219 10.6099 28.822 10.6099 28.822C10.6099 28.8221 10.6099 28.8222 10.6099 28.8222C10.6099 28.8223 10.6099 28.8224 10.6099 28.8225C10.6099 28.8225 10.6099 28.8226 10.6099 28.8227C10.6099 28.8228 10.6099 28.8228 10.6099 28.8229C10.6099 28.823 10.6099 28.8231 10.6099 28.8231C10.6099 28.8232 10.6099 28.8233 10.6099 28.8233C10.6099 28.8234 10.6099 28.8235 10.6099 28.8236C10.6099 28.8236 10.6099 28.8237 10.6099 28.8238C10.6099 28.8239 10.6099 28.8239 10.6099 28.824C10.6099 28.8241 10.6099 28.8242 10.6099 28.8242C10.6099 28.8243 10.6099 28.8244 10.6099 28.8245C10.6099 28.8246 10.6099 28.8246 10.6099 28.8247C10.6099 28.8248 10.6099 28.8249 10.6099 28.8249C10.6099 28.825 10.6099 28.8251 10.6099 28.8252C10.6099 28.8252 10.6099 28.8253 10.6099 28.8254C10.6099 28.8255 10.6099 28.8256 10.6099 28.8256C10.6099 28.8257 10.6099 28.8258 10.6099 28.8259C10.6099 28.8259 10.6099 28.826 10.6099 28.8261C10.6099 28.8262 10.6099 28.8263 10.6099 28.8263C10.6099 28.8264 10.6099 28.8265 10.6099 28.8266C10.6099 28.8267 10.6099 28.8267 10.6099 28.8268C10.6099 28.8269 10.6099 28.827 10.6099 28.8271C10.6099 28.8271 10.6099 28.8272 10.6099 28.8273C10.6099 28.8274 10.6099 28.8275 10.6099 28.8276C10.6099 28.8276 10.6099 28.8277 10.6099 28.8278C10.6099 28.8279 10.6099 28.828 10.6099 28.828C10.6099 28.8281 10.6099 28.8282 10.6099 28.8283C10.6099 28.8284 10.6099 28.8285 10.6099 28.8285C10.6099 28.8286 10.6099 28.8287 10.6099 28.8288C10.6099 28.8289 10.6099 28.829 10.6099 28.829C10.6099 28.8291 10.6099 28.8292 10.6099 28.8293C10.6099 28.8294 10.6099 28.8295 10.6099 28.8295C10.6099 28.8296 10.6099 28.8297 10.6099 28.8298C10.6099 28.8299 10.6099 28.83 10.6099 28.8301C10.6099 28.8301 10.6099 28.8302 10.6099 28.8303C10.6099 28.8304 10.6099 28.8305 10.6099 28.8306C10.6099 28.8307 10.6099 28.8307 10.6099 28.8308C10.6099 28.8309 10.6099 28.831 10.6099 28.8311C10.6099 28.8312 10.6099 28.8313 10.6099 28.8314C10.6099 28.8314 10.6099 28.8315 10.6099 28.8316C10.6099 28.8317 10.6099 28.8318 10.6099 28.8319C10.6099 28.832 10.6099 28.8321 10.6099 28.8321C10.6099 28.8322 10.6099 28.8323 10.6099 28.8324C10.6099 28.8325 10.6099 28.8326 10.6099 28.8327C10.6099 28.8328 10.6099 28.8329 10.6099 28.833C10.6099 28.833 10.6099 28.8331 10.6099 28.8332C10.6099 28.8333 10.6099 28.8334 10.6099 28.8335C10.6099 28.8336 10.6099 28.8337 10.6099 28.8338C10.6099 28.8339 10.6099 28.834 10.6099 28.834C10.6099 28.8341 10.6099 28.8342 10.6099 28.8343C10.6099 28.8344 10.6099 28.8345 10.6099 28.8346C10.6099 28.8347 10.6099 28.8348 10.6099 28.8349C10.6099 28.835 10.6099 28.8351 10.6099 28.8352C10.6099 28.8353 10.6099 28.8353 10.6099 28.8354C10.6099 28.8355 10.6099 28.8356 10.6099 28.8357C10.6099 28.8358 10.6099 28.8359 10.6099 28.836C10.6099 28.8361 10.6099 28.8362 10.6099 28.8363C10.6099 28.8364 10.6099 28.8365 10.6099 28.8366C10.6099 28.8367 10.6099 28.8368 10.6099 28.8369C10.6099 28.837 10.6099 28.8371 10.6099 28.8372C10.6099 28.8372 10.6099 28.8373 10.6099 28.8374C10.6099 28.8375 10.6099 28.8376 10.6099 28.8377C10.6099 28.8378 10.6099 28.8379 10.6099 28.838C10.6099 28.8381 10.6099 28.8382 10.6099 28.8383C10.6099 28.8384 10.6099 28.8385 10.6099 28.8386C10.6099 28.8387 10.6099 28.8388 10.6099 28.8389C10.6099 28.839 10.6099 28.8391 10.6099 28.8392C10.6099 28.8393 10.6099 28.8394 10.6099 28.8395C10.6099 28.8396 10.6099 28.8397 10.6099 28.8398C10.6099 28.8399 10.6099 28.84 10.6099 28.8401C10.6099 28.8402 10.6099 28.8403 10.6099 28.8404C10.6099 28.8405 10.6099 28.8406 10.6099 28.8407C10.6099 28.8408 10.6099 28.8409 10.6099 28.841C10.6099 28.8411 10.6099 28.8412 10.6099 28.8413C10.6099 28.8414 10.6099 28.8415 10.6099 28.8417C10.6099 28.8418 10.6099 28.8419 10.6099 28.842C10.6099 28.8421 10.6099 28.8422 10.6099 28.8423C10.6099 28.8424 10.6099 28.8425 10.6099 28.8426C10.6099 28.8427 10.6099 28.8428 10.6099 28.8429C10.6099 28.843 10.6099 28.8431 10.6099 28.8432C10.6099 28.8433 10.6099 28.8434 10.6099 28.8435C10.6099 28.8436 10.6099 28.8437 10.6099 28.8439C10.6099 28.844 10.6099 28.8441 10.6099 28.8442C10.6099 28.8443 10.6099 28.8444 10.6099 28.8445C10.6099 28.8446 10.6099 28.8447 10.6099 28.8448C10.6099 28.8449 10.6099 28.845 10.6099 28.8451C10.6099 28.8452 10.6099 28.8454 10.6099 28.8455C10.6099 28.8456 10.6099 28.8457 10.6099 28.8458C10.6099 28.8459 10.6099 28.846 10.6099 28.8461C10.6099 28.8462 10.6099 28.8463 10.6099 28.8465C10.6099 28.8466 10.6099 28.8467 10.6099 28.8468C10.6099 28.8469 10.6099 28.847 10.6099 28.8471C10.6099 28.8472 10.6099 28.8473 10.6099 28.8475C10.6099 28.8476 10.6099 28.8477 10.6099 28.8478C10.6099 28.8479 10.6099 28.848 10.6099 28.8481C10.6099 28.8482 10.6099 28.8483 10.6099 28.8485C10.6099 28.8486 10.6099 28.8487 10.6099 28.8488C10.6099 28.8489 10.6099 28.849 10.6099 28.8491C10.6099 28.8493 10.6099 28.8494 10.6099 28.8495C10.6099 28.8496 10.6099 28.8497 10.6099 28.8498C10.6099 28.8499 10.6099 28.8501 10.6099 28.8502C10.6099 28.8503 10.6099 28.8504 10.6099 28.8505C10.6099 28.8506 10.6099 28.8508 10.6099 28.8509C10.6099 28.851 10.6099 28.8511 10.6099 28.8512C10.6099 28.8513 10.6099 28.8515 10.6099 28.8516C10.6099 28.8517 10.6099 28.8518 10.6099 28.8519C10.6099 28.852 10.6099 28.8522 10.6099 28.8523C10.6099 28.8524 10.6099 28.8525 10.6099 28.8526C10.6099 28.8528 10.6099 28.8529 10.6099 28.853C10.6099 28.8531 10.6099 28.8532 10.6099 28.8534C10.6099 28.8535 10.6099 28.8536 10.6099 28.8537C10.6099 28.8538 10.6099 28.854 10.6099 28.8541C10.6099 28.8542 10.6099 28.8543 10.6099 28.8544C10.6099 28.8546 10.6099 28.8547 10.6099 28.8548C10.6099 28.8549 10.6099 28.855 10.6099 28.8552C10.6099 28.8553 10.6099 28.8554 10.6099 28.8555C10.6099 28.8557 10.6099 28.8558 10.6099 28.8559C10.6099 28.856 10.6099 28.8561 10.6099 28.8563C10.6099 28.8564 10.6099 28.8565 10.6099 28.8566C10.6099 28.8568 10.6099 28.8569 10.6099 28.857C10.6099 28.8571 10.6099 28.8573 10.6099 28.8574C10.6099 28.8575 10.6099 28.8576 10.6099 28.8578C10.6099 28.8579 10.6099 28.858 10.6099 28.8581C10.6099 28.8583 10.6099 28.8584 10.6099 28.8585C10.6099 28.8587 10.6099 28.8588 10.6099 28.8589C10.6099 28.859 10.6099 28.8592 10.6099 28.8593C10.6099 28.8594 10.6099 28.8595 10.6099 28.8597C10.6099 28.8598 10.6099 28.8599 10.6099 28.8601C10.6099 28.8602 10.6099 28.8603 10.6099 28.8604C10.6099 28.8606 10.6099 28.8607 10.6099 28.8608C10.6099 28.861 10.6099 28.8611 10.6099 28.8612C10.6099 28.8614 10.6099 28.8615 10.6099 28.8616H11.0099C11.0099 28.8615 11.0099 28.8614 11.0099 28.8612C11.0099 28.8611 11.0099 28.861 11.0099 28.8608C11.0099 28.8607 11.0099 28.8606 11.0099 28.8604C11.0099 28.8603 11.0099 28.8602 11.0099 28.8601C11.0099 28.8599 11.0099 28.8598 11.0099 28.8597C11.0099 28.8595 11.0099 28.8594 11.0099 28.8593C11.0099 28.8592 11.0099 28.859 11.0099 28.8589C11.0099 28.8588 11.0099 28.8587 11.0099 28.8585C11.0099 28.8584 11.0099 28.8583 11.0099 28.8581C11.0099 28.858 11.0099 28.8579 11.0099 28.8578C11.0099 28.8576 11.0099 28.8575 11.0099 28.8574C11.0099 28.8573 11.0099 28.8571 11.0099 28.857C11.0099 28.8569 11.0099 28.8568 11.0099 28.8566C11.0099 28.8565 11.0099 28.8564 11.0099 28.8563C11.0099 28.8561 11.0099 28.856 11.0099 28.8559C11.0099 28.8558 11.0099 28.8557 11.0099 28.8555C11.0099 28.8554 11.0099 28.8553 11.0099 28.8552C11.0099 28.855 11.0099 28.8549 11.0099 28.8548C11.0099 28.8547 11.0099 28.8546 11.0099 28.8544C11.0099 28.8543 11.0099 28.8542 11.0099 28.8541C11.0099 28.854 11.0099 28.8538 11.0099 28.8537C11.0099 28.8536 11.0099 28.8535 11.0099 28.8534C11.0099 28.8532 11.0099 28.8531 11.0099 28.853C11.0099 28.8529 11.0099 28.8528 11.0099 28.8526C11.0099 28.8525 11.0099 28.8524 11.0099 28.8523C11.0099 28.8522 11.0099 28.852 11.0099 28.8519C11.0099 28.8518 11.0099 28.8517 11.0099 28.8516C11.0099 28.8515 11.0099 28.8513 11.0099 28.8512C11.0099 28.8511 11.0099 28.851 11.0099 28.8509C11.0099 28.8508 11.0099 28.8506 11.0099 28.8505C11.0099 28.8504 11.0099 28.8503 11.0099 28.8502C11.0099 28.8501 11.0099 28.8499 11.0099 28.8498C11.0099 28.8497 11.0099 28.8496 11.0099 28.8495C11.0099 28.8494 11.0099 28.8493 11.0099 28.8491C11.0099 28.849 11.0099 28.8489 11.0099 28.8488C11.0099 28.8487 11.0099 28.8486 11.0099 28.8485C11.0099 28.8483 11.0099 28.8482 11.0099 28.8481C11.0099 28.848 11.0099 28.8479 11.0099 28.8478C11.0099 28.8477 11.0099 28.8476 11.0099 28.8475C11.0099 28.8473 11.0099 28.8472 11.0099 28.8471C11.0099 28.847 11.0099 28.8469 11.0099 28.8468C11.0099 28.8467 11.0099 28.8466 11.0099 28.8465C11.0099 28.8463 11.0099 28.8462 11.0099 28.8461C11.0099 28.846 11.0099 28.8459 11.0099 28.8458C11.0099 28.8457 11.0099 28.8456 11.0099 28.8455C11.0099 28.8454 11.0099 28.8452 11.0099 28.8451C11.0099 28.845 11.0099 28.8449 11.0099 28.8448C11.0099 28.8447 11.0099 28.8446 11.0099 28.8445C11.0099 28.8444 11.0099 28.8443 11.0099 28.8442C11.0099 28.8441 11.0099 28.844 11.0099 28.8439C11.0099 28.8437 11.0099 28.8436 11.0099 28.8435C11.0099 28.8434 11.0099 28.8433 11.0099 28.8432C11.0099 28.8431 11.0099 28.843 11.0099 28.8429C11.0099 28.8428 11.0099 28.8427 11.0099 28.8426C11.0099 28.8425 11.0099 28.8424 11.0099 28.8423C11.0099 28.8422 11.0099 28.8421 11.0099 28.842C11.0099 28.8419 11.0099 28.8418 11.0099 28.8417C11.0099 28.8415 11.0099 28.8414 11.0099 28.8413C11.0099 28.8412 11.0099 28.8411 11.0099 28.841C11.0099 28.8409 11.0099 28.8408 11.0099 28.8407C11.0099 28.8406 11.0099 28.8405 11.0099 28.8404C11.0099 28.8403 11.0099 28.8402 11.0099 28.8401C11.0099 28.84 11.0099 28.8399 11.0099 28.8398C11.0099 28.8397 11.0099 28.8396 11.0099 28.8395C11.0099 28.8394 11.0099 28.8393 11.0099 28.8392C11.0099 28.8391 11.0099 28.839 11.0099 28.8389C11.0099 28.8388 11.0099 28.8387 11.0099 28.8386C11.0099 28.8385 11.0099 28.8384 11.0099 28.8383C11.0099 28.8382 11.0099 28.8381 11.0099 28.838C11.0099 28.8379 11.0099 28.8378 11.0099 28.8377C11.0099 28.8376 11.0099 28.8375 11.0099 28.8374C11.0099 28.8373 11.0099 28.8372 11.0099 28.8372C11.0099 28.8371 11.0099 28.837 11.0099 28.8369C11.0099 28.8368 11.0099 28.8367 11.0099 28.8366C11.0099 28.8365 11.0099 28.8364 11.0099 28.8363C11.0099 28.8362 11.0099 28.8361 11.0099 28.836C11.0099 28.8359 11.0099 28.8358 11.0099 28.8357C11.0099 28.8356 11.0099 28.8355 11.0099 28.8354C11.0099 28.8353 11.0099 28.8353 11.0099 28.8352C11.0099 28.8351 11.0099 28.835 11.0099 28.8349C11.0099 28.8348 11.0099 28.8347 11.0099 28.8346C11.0099 28.8345 11.0099 28.8344 11.0099 28.8343C11.0099 28.8342 11.0099 28.8341 11.0099 28.834C11.0099 28.834 11.0099 28.8339 11.0099 28.8338C11.0099 28.8337 11.0099 28.8336 11.0099 28.8335C11.0099 28.8334 11.0099 28.8333 11.0099 28.8332C11.0099 28.8331 11.0099 28.833 11.0099 28.833C11.0099 28.8329 11.0099 28.8328 11.0099 28.8327C11.0099 28.8326 11.0099 28.8325 11.0099 28.8324C11.0099 28.8323 11.0099 28.8322 11.0099 28.8321C11.0099 28.8321 11.0099 28.832 11.0099 28.8319C11.0099 28.8318 11.0099 28.8317 11.0099 28.8316C11.0099 28.8315 11.0099 28.8314 11.0099 28.8314C11.0099 28.8313 11.0099 28.8312 11.0099 28.8311C11.0099 28.831 11.0099 28.8309 11.0099 28.8308C11.0099 28.8307 11.0099 28.8307 11.0099 28.8306C11.0099 28.8305 11.0099 28.8304 11.0099 28.8303C11.0099 28.8302 11.0099 28.8301 11.0099 28.8301C11.0099 28.83 11.0099 28.8299 11.0099 28.8298C11.0099 28.8297 11.0099 28.8296 11.0099 28.8295C11.0099 28.8295 11.0099 28.8294 11.0099 28.8293C11.0099 28.8292 11.0099 28.8291 11.0099 28.829C11.0099 28.829 11.0099 28.8289 11.0099 28.8288C11.0099 28.8287 11.0099 28.8286 11.0099 28.8285C11.0099 28.8285 11.0099 28.8284 11.0099 28.8283C11.0099 28.8282 11.0099 28.8281 11.0099 28.828C11.0099 28.828 11.0099 28.8279 11.0099 28.8278C11.0099 28.8277 11.0099 28.8276 11.0099 28.8276C11.0099 28.8275 11.0099 28.8274 11.0099 28.8273C11.0099 28.8272 11.0099 28.8271 11.0099 28.8271C11.0099 28.827 11.0099 28.8269 11.0099 28.8268C11.0099 28.8267 11.0099 28.8267 11.0099 28.8266C11.0099 28.8265 11.0099 28.8264 11.0099 28.8263C11.0099 28.8263 11.0099 28.8262 11.0099 28.8261C11.0099 28.826 11.0099 28.8259 11.0099 28.8259C11.0099 28.8258 11.0099 28.8257 11.0099 28.8256C11.0099 28.8256 11.0099 28.8255 11.0099 28.8254C11.0099 28.8253 11.0099 28.8252 11.0099 28.8252C11.0099 28.8251 11.0099 28.825 11.0099 28.8249C11.0099 28.8249 11.0099 28.8248 11.0099 28.8247C11.0099 28.8246 11.0099 28.8246 11.0099 28.8245C11.0099 28.8244 11.0099 28.8243 11.0099 28.8242C11.0099 28.8242 11.0099 28.8241 11.0099 28.824C11.0099 28.8239 11.0099 28.8239 11.0099 28.8238C11.0099 28.8237 11.0099 28.8236 11.0099 28.8236C11.0099 28.8235 11.0099 28.8234 11.0099 28.8233C11.0099 28.8233 11.0099 28.8232 11.0099 28.8231C11.0099 28.8231 11.0099 28.823 11.0099 28.8229C11.0099 28.8228 11.0099 28.8228 11.0099 28.8227C11.0099 28.8226 11.0099 28.8225 11.0099 28.8225C11.0099 28.8224 11.0099 28.8223 11.0099 28.8222C11.0099 28.8222 11.0099 28.8221 11.0099 28.822C11.0099 28.822 11.0099 28.8219 11.0099 28.8218C11.0099 28.8217 11.0099 28.8217 11.0099 28.8216C11.0099 28.8215 11.0099 28.8215 11.0099 28.8214C11.0099 28.8213 11.0099 28.8212 11.0099 28.8212C11.0099 28.8211 11.0099 28.821 11.0099 28.821C11.0099 28.8209 11.0099 28.8208 11.0099 28.8208C11.0099 28.8207 11.0099 28.8206 11.0099 28.8205C11.0099 28.8205 11.0099 28.8204 11.0099 28.8203C11.0099 28.8203 11.0099 28.8202 11.0099 28.8201C11.0099 28.8201 11.0099 28.82 11.0099 28.8199C11.0099 28.8199 11.0099 28.8198 11.0099 28.8197C11.0099 28.8197 11.0099 28.8196 11.0099 28.8195C11.0099 28.8195 11.0099 28.8194 11.0099 28.8193C11.0099 28.8192 11.0099 28.8192 11.0099 28.8191C11.0099 28.819 11.0099 28.819 11.0099 28.8189C11.0099 28.8188 11.0099 28.8188 11.0099 28.8187C11.0099 28.8186 11.0099 28.8186 11.0099 28.8185C11.0099 28.8185 11.0099 28.8184 11.0099 28.8183C11.0099 28.8183 11.0099 28.8182 11.0099 28.8181C11.0099 28.8181 11.0099 28.818 11.0099 28.8179C11.0099 28.8179 11.0099 28.8178 11.0099 28.8177C11.0099 28.8177 11.0099 28.8176 11.0099 28.8175C11.0099 28.8175 11.0099 28.8174 11.0099 28.8174C11.0099 28.8173 11.0099 28.8172 11.0099 28.8172C11.0099 28.8171 11.0099 28.817 11.0099 28.817C11.0099 28.8169 11.0099 28.8168 11.0099 28.8168C11.0099 28.8167 11.0099 28.8167 11.0099 28.8166C11.0099 28.8165 11.0099 28.8165 11.0099 28.8164C11.0099 28.8164 11.0099 28.8163 11.0099 28.8162C11.0099 28.8162 11.0099 28.8161 11.0099 28.816C11.0099 28.816 11.0099 28.8159 11.0099 28.8159C11.0099 28.8158 11.0099 28.8157 11.0099 28.8157C11.0099 28.8156 11.0099 28.8156 11.0099 28.8155C11.0099 28.8154 11.0099 28.8154 11.0099 28.8153C11.0099 28.8153 11.0099 28.8152 11.0099 28.8151C11.0099 28.8151 11.0099 28.815 11.0099 28.815C11.0099 28.8149 11.0099 28.8148 11.0099 28.8148C11.0099 28.8147 11.0099 28.8147 11.0099 28.8146C11.0099 28.8146 11.0099 28.8145 11.0099 28.8144C11.0099 28.8144 11.0099 28.8143 11.0099 28.8143C11.0099 28.8142 11.0099 28.8141 11.0099 28.8141C11.0099 28.814 11.0099 28.814 11.0099 28.8139C11.0099 28.8139 11.0099 28.8138 11.0099 28.8137C11.0099 28.8137 11.0099 28.8136 11.0099 28.8136C11.0099 28.8135 11.0099 28.8135 11.0099 28.8134C11.0099 28.8134 11.0099 28.8133 11.0099 28.8132C11.0099 28.8132 11.0099 28.8131 11.0099 28.8131C11.0099 28.813 11.0099 28.813 11.0099 28.8129C11.0099 28.8129 11.0099 28.8128 11.0099 28.8127C11.0099 28.8127 11.0099 28.8126 11.0099 28.8126C11.0099 28.8125 11.0099 28.8125 11.0099 28.8124C11.0099 28.8124 11.0099 28.8123 11.0099 28.8123C11.0099 28.8122 11.0099 28.8122 11.0099 28.8121C11.0099 28.812 11.0099 28.812 11.0099 28.8119C11.0099 28.8119 11.0099 28.8118 11.0099 28.8118C11.0099 28.8117 11.0099 28.8117 11.0099 28.8116C11.0099 28.8116 11.0099 28.8115 11.0099 28.8115C11.0099 28.8114 11.0099 28.8114 11.0099 28.8113C11.0099 28.8113 11.0099 28.8112 11.0099 28.8112C11.0099 28.8111 11.0099 28.8111 11.0099 28.811C11.0099 28.811 11.0099 28.8109 11.0099 28.8108C11.0099 28.8108 11.0099 28.8107 11.0099 28.8107C11.0099 28.8106 11.0099 28.8106 11.0099 28.8105C11.0099 28.8105 11.0099 28.8104 11.0099 28.8104C11.0099 28.8103 11.0099 28.8103 11.0099 28.8102C11.0099 28.8102 11.0099 28.8101 11.0099 28.8101C11.0099 28.8101 11.0099 28.81 11.0099 28.81C11.0099 28.8099 11.0099 28.8099 11.0099 28.8098C11.0099 28.8098 11.0099 28.8097 11.0099 28.8097C11.0099 28.8096 11.0099 28.8096 11.0099 28.8095C11.0099 28.8095 11.0099 28.8094 11.0099 28.8094C11.0099 28.8093 11.0099 28.8093 11.0099 28.8092C11.0099 28.8092 11.0099 28.8091 11.0099 28.8091C11.0099 28.809 11.0099 28.809 11.0099 28.8089C11.0099 28.8089 11.0099 28.8089 11.0099 28.8088C11.0099 28.8088 11.0099 28.8087 11.0099 28.8087C11.0099 28.8086 11.0099 28.8086 11.0099 28.8085C11.0099 28.8085 11.0099 28.8084 11.0099 28.8084C11.0099 28.8083 11.0099 28.8083 11.0099 28.8083C11.0099 28.8082 11.0099 28.8082 11.0099 28.8081C11.0099 28.8081 11.0099 28.808 11.0099 28.808C11.0099 28.8079 11.0099 28.8079 11.0099 28.8079C11.0099 28.8078 11.0099 28.8078 11.0099 28.8077C11.0099 28.8077 11.0099 28.8076 11.0099 28.8076C11.0099 28.8075 11.0099 28.8075 11.0099 28.8075C11.0099 28.8074 11.0099 28.8074 11.0099 28.8073C11.0099 28.8073 11.0099 28.8072 11.0099 28.8072C11.0099 28.8072 11.0099 28.8071 11.0099 28.8071C11.0099 28.807 11.0099 28.807 11.0099 28.8069C11.0099 28.8069 11.0099 28.8069 11.0099 28.8068C11.0099 28.8068 11.0099 28.8067 11.0099 28.8067C11.0099 28.8067 11.0099 28.8066 11.0099 28.8066C11.0099 28.8065 11.0099 28.8065 11.0099 28.8064C11.0099 28.8064 11.0099 28.8064 11.0099 28.8063C11.0099 28.8063 11.0099 28.8062 11.0099 28.8062C11.0099 28.8062 11.0099 28.8061 11.0099 28.8061C11.0099 28.806 11.0099 28.806 11.0099 28.806C11.0099 28.8059 11.0099 28.8059 11.0099 28.8058C11.0099 28.8058 11.0099 28.8058 11.0099 28.8057C11.0099 28.8057 11.0099 28.8056 11.0099 28.8056C11.0099 28.8056 11.0099 28.8055 11.0099 28.8055C11.0099 28.8055 11.0099 28.8054 11.0099 28.8054C11.0099 28.8053 11.0099 28.8053 11.0099 28.8053C11.0099 28.8052 11.0099 28.8052 11.0099 28.8051C11.0099 28.8051 11.0099 28.8051 11.0099 28.805C11.0099 28.805 11.0099 28.805 11.0099 28.8049C11.0099 28.8049 11.0099 28.8048 11.0099 28.8048C11.0099 28.8048 11.0099 28.8047 11.0099 28.8047C11.0099 28.8047 11.0099 28.8046 11.0099 28.8046C11.0099 28.8045 11.0099 28.8045 11.0099 28.8045C11.0099 28.8044 11.0099 28.8044 11.0099 28.8044C11.0099 28.8043 11.0099 28.8043 11.0099 28.8043C11.0099 28.8042 11.0099 28.8042 11.0099 28.8041C11.0099 28.8041 11.0099 28.8041 11.0099 28.804C11.0099 28.804 11.0099 28.804 11.0099 28.8039C11.0099 28.8039 11.0099 28.8039 11.0099 28.8038C11.0099 28.8038 11.0099 28.8038 11.0099 28.8037C11.0099 28.8037 11.0099 28.8037 11.0099 28.8036C11.0099 28.8036 11.0099 28.8036 11.0099 28.8035C11.0099 28.8035 11.0099 28.8035 11.0099 28.8034C11.0099 28.8034 11.0099 28.8034 11.0099 28.8033C11.0099 28.8033 11.0099 28.8033 11.0099 28.8032C11.0099 28.8032 11.0099 28.8032 11.0099 28.8031C11.0099 28.8031 11.0099 28.8031 11.0099 28.803C11.0099 28.803 11.0099 28.803 11.0099 28.8029C11.0099 28.8029 11.0099 28.8029 11.0099 28.8028C11.0099 28.8028 11.0099 28.8028 11.0099 28.8027C11.0099 28.8027 11.0099 28.8027 11.0099 28.8026C11.0099 28.8026 11.0099 28.8026 11.0099 28.8025C11.0099 28.8025 11.0099 28.8025 11.0099 28.8024C11.0099 28.8024 11.0099 28.8024 11.0099 28.8024C11.0099 28.8023 11.0099 28.8023 11.0099 28.8023C11.0099 28.8022 11.0099 28.8022 11.0099 28.8022C11.0099 28.8021 11.0099 28.8021 11.0099 28.8021C11.0099 28.8021 11.0099 28.802 11.0099 28.802C11.0099 28.802 11.0099 28.8019 11.0099 28.8019C11.0099 28.8019 11.0099 28.8018 11.0099 28.8018C11.0099 28.8018 11.0099 28.8018 11.0099 28.8017C11.0099 28.8017 11.0099 28.8017 11.0099 28.8016C11.0099 28.8016 11.0099 28.8016 11.0099 28.8015C11.0099 28.8015 11.0099 28.8015 11.0099 28.8015C11.0099 28.8014 11.0099 28.8014 11.0099 28.8014C11.0099 28.8014 11.0099 28.8013 11.0099 28.8013C11.0099 28.8013 11.0099 28.8012 11.0099 28.8012C11.0099 28.8012 11.0099 28.8012 11.0099 28.8011C11.0099 28.8011 11.0099 28.8011 11.0099 28.801C11.0099 28.801 11.0099 28.801 11.0099 28.801C11.0099 28.8009 11.0099 28.8009 11.0099 28.8009C11.0099 28.8009 11.0099 28.8008 11.0099 28.8008C11.0099 28.8008 11.0099 28.8008 11.0099 28.8007C11.0099 28.8007 11.0099 28.8007 11.0099 28.8006C11.0099 28.8006 11.0099 28.8006 11.0099 28.8006C11.0099 28.8005 11.0099 28.8005 11.0099 28.8005C11.0099 28.8005 11.0099 28.8004 11.0099 28.8004C11.0099 28.8004 11.0099 28.8004 11.0099 28.8003C11.0099 28.8003 11.0099 28.8003 11.0099 28.8003C11.0099 28.8002 11.0099 28.8002 11.0099 28.8002C11.0099 28.8002 11.0099 28.8001 11.0099 28.8001C11.0099 28.8001 11.0099 28.8001 11.0099 28.8C11.0099 28.8 11.0099 28.8 11.0099 28.8C11.0099 28.7999 11.0099 28.7999 11.0099 28.7999C11.0099 28.7999 11.0099 28.7998 11.0099 28.7998C11.0099 28.7998 11.0099 28.7998 11.0099 28.7998C11.0099 28.7997 11.0099 28.7997 11.0099 28.7997C11.0099 28.7997 11.0099 28.7996 11.0099 28.7996C11.0099 28.7996 11.0099 28.7996 11.0099 28.7995C11.0099 28.7995 11.0099 28.7995 11.0099 28.7995C11.0099 28.7995 11.0099 28.7994 11.0099 28.7994C11.0099 28.7994 11.0099 28.7994 11.0099 28.7993C11.0099 28.7993 11.0099 28.7993 11.0099 28.7993C11.0099 28.7993 11.0099 28.7992 11.0099 28.7992C11.0099 28.7992 11.0099 28.7992 11.0099 28.7991C11.0099 28.7991 11.0099 28.7991 11.0099 28.7991C11.0099 28.7991 11.0099 28.799 11.0099 28.799C11.0099 28.799 11.0099 28.799 11.0099 28.799C11.0099 28.7989 11.0099 28.7989 11.0099 28.7989C11.0099 28.7989 11.0099 28.7988 11.0099 28.7988C11.0099 28.7988 11.0099 28.7988 11.0099 28.7988C11.0099 28.7987 11.0099 28.7987 11.0099 28.7987C11.0099 28.7987 11.0099 28.7987 11.0099 28.7986C11.0099 28.7986 11.0099 28.7986 11.0099 28.7986C11.0099 28.7986 11.0099 28.7985 11.0099 28.7985C11.0099 28.7985 11.0099 28.7985 11.0099 28.7985C11.0099 28.7984 11.0099 28.7984 11.0099 28.7984C11.0099 28.7984 11.0099 28.7984 11.0099 28.7984C11.0099 28.7983 11.0099 28.7983 11.0099 28.7983C11.0099 28.7983 11.0099 28.7983 11.0099 28.7982C11.0099 28.7982 11.0099 28.7982 11.0099 28.7982C11.0099 28.7982 11.0099 28.7981 11.0099 28.7981C11.0099 28.7981 11.0099 28.7981 11.0099 28.7981C11.0099 28.7981 11.0099 28.798 11.0099 28.798C11.0099 28.798 11.0099 28.798 11.0099 28.798C11.0099 28.798 11.0099 28.7979 11.0099 28.7979C11.0099 28.7979 11.0099 28.7979 11.0099 28.7979C11.0099 28.7978 11.0099 28.7978 11.0099 28.7978C11.0099 28.7978 11.0099 28.7978 11.0099 28.7978C11.0099 28.7977 11.0099 28.7977 11.0099 28.7977C11.0099 28.7977 11.0099 28.7977 11.0099 28.7977C11.0099 28.7976 11.0099 28.7976 11.0099 28.7976C11.0099 28.7976 11.0099 28.7976 11.0099 28.7976C11.0099 28.7975 11.0099 28.7975 11.0099 28.7975C11.0099 28.7975 11.0099 28.7975 11.0099 28.7975C11.0099 28.7975 11.0099 28.7974 11.0099 28.7974C11.0099 28.7974 11.0099 28.7974 11.0099 28.7974C11.0099 28.7974 11.0099 28.7973 11.0099 28.7973C11.0099 28.7973 11.0099 28.7973 11.0099 28.7973C11.0099 28.7973 11.0099 28.7973 11.0099 28.7972C11.0099 28.7972 11.0099 28.7972 11.0099 28.7972C11.0099 28.7972 11.0099 28.7972 11.0099 28.7971C11.0099 28.7971 11.0099 28.7971 11.0099 28.7971C11.0099 28.7971 11.0099 28.7971 11.0099 28.7971C11.0099 28.797 11.0099 28.797 11.0099 28.797C11.0099 28.797 11.0099 28.797 11.0099 28.797C11.0099 28.797 11.0099 28.7969 11.0099 28.7969C11.0099 28.7969 11.0099 28.7969 11.0099 28.7969C11.0099 28.7969 11.0099 28.7969 11.0099 28.7969C11.0099 28.7968 11.0099 28.7968 11.0099 28.7968C11.0099 28.7968 11.0099 28.7968 11.0099 28.7968C11.0099 28.7968 11.0099 28.7967 11.0099 28.7967C11.0099 28.7967 11.0099 28.7967 11.0099 28.7967C11.0099 28.7967 11.0099 28.7967 11.0099 28.7967C11.0099 28.7966 11.0099 28.7966 11.0099 28.7966C11.0099 28.7966 11.0099 28.7966 11.0099 28.7966C11.0099 28.7966 11.0099 28.7966 11.0099 28.7965C11.0099 28.7965 11.0099 28.7965 11.0099 28.7965C11.0099 28.7965 11.0099 28.7965 11.0099 28.7965C11.0099 28.7965 11.0099 28.7965 11.0099 28.7964C11.0099 28.7964 11.0099 28.7964 11.0099 28.7964C11.0099 28.7964 11.0099 28.7964 11.0099 28.7964C11.0099 28.7964 11.0099 28.7963 11.0099 28.7963C11.0099 28.7963 11.0099 28.7963 11.0099 28.7963C11.0099 28.7963 11.0099 28.7963 11.0099 28.7963C11.0099 28.7963 11.0099 28.7962 11.0099 28.7962C11.0099 28.7962 11.0099 28.7962 11.0099 28.7962C11.0099 28.7962 11.0099 28.7962 11.0099 28.7962C11.0099 28.7962 11.0099 28.7962 11.0099 28.7961C11.0099 28.7961 11.0099 28.7961 11.0099 28.7961C11.0099 28.7961 11.0099 28.7961 11.0099 28.7961C11.0099 28.7961 11.0099 28.7961 11.0099 28.7961C11.0099 28.796 11.0099 28.796 11.0099 28.796C11.0099 28.796 11.0099 28.796 11.0099 28.796C11.0099 28.796 11.0099 28.796 11.0099 28.796C11.0099 28.796 11.0099 28.7959 11.0099 28.7959C11.0099 28.7959 11.0099 28.7959 11.0099 28.7959C11.0099 28.7959 11.0099 28.7959 11.0099 28.7959C11.0099 28.7959 11.0099 28.7959 11.0099 28.7959C11.0099 28.7958 11.0099 28.7958 11.0099 28.7958C11.0099 28.7958 11.0099 28.7958 11.0099 28.7958C11.0099 28.7958 11.0099 28.7958 11.0099 28.7958C11.0099 28.7958 11.0099 28.7958 11.0099 28.7957C11.0099 28.7957 11.0099 28.7957 11.0099 28.7957C11.0099 28.7957 11.0099 28.7957 11.0099 28.7957C11.0099 28.7957 11.0099 28.7957 11.0099 28.7957C11.0099 28.7957 11.0099 28.7957 11.0099 28.7957C11.0099 28.7956 11.0099 28.7956 11.0099 28.7956C11.0099 28.7956 11.0099 28.7956 11.0099 28.7956C11.0099 28.7956 11.0099 28.7956 11.0099 28.7956C11.0099 28.7956 11.0099 28.7956 11.0099 28.7956C11.0099 28.7956 11.0099 28.7955 11.0099 28.7955C11.0099 28.7955 11.0099 28.7955 11.0099 28.7955C11.0099 28.7955 11.0099 28.7955 11.0099 28.7955C11.0099 28.7955 11.0099 28.7955 11.0099 28.7955C11.0099 28.7955 11.0099 28.7955 11.0099 28.7955C11.0099 28.7954 11.0099 28.7954 11.0099 28.7954C11.0099 28.7954 11.0099 28.7954 11.0099 28.7954C11.0099 28.7954 11.0099 28.7954 11.0099 28.7954C11.0099 28.7954 11.0099 28.7954 11.0099 28.7954C11.0099 28.7954 11.0099 28.7954 11.0099 28.7954C11.0099 28.7953 11.0099 28.7953 11.0099 28.7953C11.0099 28.7953 11.0099 28.7953 11.0099 28.7953C11.0099 28.7953 11.0099 28.7953 11.0099 28.7953C11.0099 28.7953 11.0099 28.7953 11.0099 28.7953C11.0099 28.7953 11.0099 28.7953 11.0099 28.7953C11.0099 28.7953 11.0099 28.7953 11.0099 28.7952C11.0099 28.7952 11.0099 28.7952 11.0099 28.7952C11.0099 28.7952 11.0099 28.7952 11.0099 28.7952C11.0099 28.7952 11.0099 28.7952 11.0099 28.7952C11.0099 28.7952 11.0099 28.7952 11.0099 28.7952C11.0099 28.7952 11.0099 28.7952 11.0099 28.7952C11.0099 28.7952 11.0099 28.7952 11.0099 28.7952C11.0099 28.7951 11.0099 28.7951 11.0099 28.7951C11.0099 28.7951 11.0099 28.7951 11.0099 28.7951C11.0099 28.7951 11.0099 28.7951 11.0099 28.7951C11.0099 28.7951 11.0099 28.7951 11.0099 28.7951C11.0099 28.7951 11.0099 28.7951 11.0099 28.7951C11.0099 28.7951 11.0099 28.7951 11.0099 28.7951C11.0099 28.7951 11.0099 28.7951 11.0099 28.7951C11.0099 28.7951 11.0099 28.795 11.0099 28.795C11.0099 28.795 11.0099 28.795 11.0099 28.795C11.0099 28.795 11.0099 28.795 11.0099 28.795C11.0099 28.795 11.0099 28.795 11.0099 28.795C11.0099 28.795 11.0099 28.795 11.0099 28.795C11.0099 28.795 11.0099 28.795 11.0099 28.795C11.0099 28.795 11.0099 28.795 11.0099 28.795C11.0099 28.795 11.0099 28.795 11.0099 28.795C11.0099 28.795 11.0099 28.795 11.0099 28.795C11.0099 28.7949 11.0099 28.7949 11.0099 28.7949C11.0099 28.7949 11.0099 28.7949 11.0099 28.7949C11.0099 28.7949 11.0099 28.7949 11.0099 28.7949C11.0099 28.7949 11.0099 28.7949 11.0099 28.7949C11.0099 28.7949 11.0099 28.7949 11.0099 28.7949C11.0099 28.7949 11.0099 28.7949 11.0099 28.7949C11.0099 28.7949 11.0099 28.7949 11.0099 28.7949C11.0099 28.7949 11.0099 28.7949 11.0099 28.7949C11.0099 28.7949 11.0099 28.7949 11.0099 28.7949C11.0099 28.7949 11.0099 28.7949 11.0099 28.7949C11.0099 28.7949 11.0099 28.7949 11.0099 28.7948C11.0099 28.7948 11.0099 28.7948 11.0099 28.7948C11.0099 28.7948 11.0099 28.7948 11.0099 28.7948C11.0099 28.7948 11.0099 28.7948 11.0099 28.7948C11.0099 28.7948 11.0099 28.7948 11.0099 28.7948C11.0099 28.7948 11.0099 28.7948 11.0099 28.7948C11.0099 28.7948 11.0099 28.7948 11.0099 28.7948C11.0099 28.7948 11.0099 28.7948 11.0099 28.7948C11.0099 28.7948 11.0099 28.7948 11.0099 28.7948C11.0099 28.7948 11.0099 28.7948 11.0099 28.7948C11.0099 28.7948 11.0099 28.7948 11.0099 28.7948C11.0099 28.7948 11.0099 28.7948 11.0099 28.7948C11.0099 28.7948 11.0099 28.7948 11.0099 28.7948C11.0099 28.7948 11.0099 28.7948 11.0099 28.7948C11.0099 28.7948 11.0099 28.7948 11.0099 28.7948C11.0099 28.7948 11.0099 28.7948 11.0099 28.7948C11.0099 28.7948 11.0099 28.7947 11.0099 28.7947C11.0099 28.7947 11.0099 28.7947 11.0099 28.7947C11.0099 28.7947 11.0099 28.7947 11.0099 28.7947C11.0099 28.7947 11.0099 28.7947 11.0099 28.7947C11.0099 28.7947 11.0099 28.7947 11.0099 28.7947C11.0099 28.7947 11.0099 28.7947 11.0099 28.7947C11.0099 28.7947 11.0099 28.7947 11.0099 28.7947C11.0099 28.7947 11.0099 28.7947 11.0099 28.7947C11.0099 28.7947 11.0099 28.7947 11.0099 28.7947C11.0099 28.7947 11.0099 28.7947 11.0099 28.7947V28.7947C11.0099 28.7947 11.0099 28.7947 11.0099 28.7947C11.0099 28.7947 11.0099 28.7947 11.0099 28.7947V28.7947C11.0099 28.7947 11.0099 28.7947 11.0099 28.7947V28.7947C11.0099 28.7947 11.0099 28.7947 11.0099 28.7947C11.0099 28.7947 11.0099 28.7947 11.0099 28.7947V28.7947V28.7947C11.0099 28.7947 11.0099 28.7947 11.0099 28.7947C11.0099 28.7947 11.0099 28.7947 11.0099 28.7947C11.0099 28.7947 11.0099 28.7947 11.0099 28.7947C11.0099 28.7947 11.0099 28.7947 11.0099 28.7947C11.0099 28.7947 11.0099 28.7947 11.0099 28.7947V28.7947C11.0099 28.7947 11.0099 28.7947 11.0099 28.7947C11.0099 28.7947 11.0099 28.7947 11.0099 28.7947V28.7947C11.0099 28.7947 11.0099 28.7947 11.0099 28.7947C11.0099 28.7947 11.0099 28.7947 11.0099 28.7947V28.7947C11.0099 28.7947 11.0099 28.7947 11.0099 28.7947V28.7947C10.8099 28.7947 10.6099 28.7947 10.8099 28.7947ZM10.7988 28.6619C4.68238 29.0025 -0.2 34.0431 -0.2 40.1786H0.2C0.2 34.2605 4.91145 29.3904 10.8211 29.0613L10.7988 28.6619ZM-0.2 40.1786V41.5179H0.2V40.1786H-0.2ZM-0.2 41.5179C-0.2 47.9246 5.02595 53.1018 11.4856 53.1018V52.7018C5.2435 52.7018 0.2 47.7004 0.2 41.5179H-0.2ZM11.4856 53.1018H12.0936V52.7018H11.4856V53.1018ZM11.9247 53.0089L16.7216 60.5758L17.0595 60.3617L12.2625 52.7947L11.9247 53.0089ZM16.7214 60.5754C20.1364 65.9911 25.9433 69.1732 32.3623 69.1732V68.7732C26.0796 68.7732 20.4009 65.6607 17.0597 60.3621L16.7214 60.5754ZM32.3623 69.1732H33.3082V68.7732H32.3623V69.1732ZM33.1149 69.0248C33.7452 71.3848 35.9156 73.1911 38.5104 73.1911V72.7911C36.1056 72.7911 34.0872 71.1152 33.5014 68.9216L33.1149 69.0248ZM38.5104 73.1911C41.592 73.1911 44.1154 70.6925 44.1154 67.6339H43.7154C43.7154 70.4682 41.3744 72.7911 38.5104 72.7911V73.1911ZM44.1154 67.6339C44.1154 64.5754 41.592 62.0768 38.5104 62.0768V62.4768C41.3744 62.4768 43.7154 64.7996 43.7154 67.6339H44.1154ZM38.5104 62.0768C35.9156 62.0768 33.7452 63.8831 33.1149 66.243L33.5014 66.3463C34.0872 64.1526 36.1056 62.4768 38.5104 62.4768V62.0768ZM33.3082 66.0947H32.3623V66.4947H33.3082V66.0947ZM32.3623 66.0947C27.0263 66.0947 22.1584 63.3847 19.3574 58.8898L19.0179 59.1013C21.8921 63.7136 26.8883 66.4947 32.3623 66.4947V66.0947ZM19.3559 58.8874L15.4373 52.7936L15.1008 53.01L19.0194 59.1037L19.3559 58.8874ZM15.2691 53.1018H16.2149V52.7018H15.2691V53.1018ZM16.2149 53.1018C17.8101 53.1018 19.1174 51.8086 19.1174 50.2232H18.7174C18.7174 51.5843 17.5925 52.7018 16.2149 52.7018V53.1018ZM19.1174 50.2232V31.4732H18.7174V50.2232H19.1174ZM19.1174 31.4732C19.1174 29.8879 17.8101 28.5947 16.2149 28.5947V28.9947C17.5925 28.9947 18.7174 30.1121 18.7174 31.4732H19.1174ZM16.2149 28.5947H13.5124V28.9947H16.2149V28.5947ZM13.7124 28.7947C13.7124 15.5809 24.4987 4.88751 37.8348 4.88751V4.48751C24.2812 4.48751 13.3124 15.3566 13.3124 28.7947H13.7124ZM37.8348 4.88751C51.1709 4.88751 61.9572 15.5809 61.9572 28.7947H62.3572C62.3572 15.3566 51.3885 4.48751 37.8348 4.48751V4.88751ZM62.1572 28.5947H59.4547V28.9947H62.1572V28.5947ZM59.4547 28.5947C57.8596 28.5947 56.5522 29.8879 56.5522 31.4732H56.9522C56.9522 30.1121 58.0771 28.9947 59.4547 28.9947V28.5947ZM56.5522 31.4732V50.2232H56.9522V31.4732H56.5522ZM56.5522 50.2232C56.5522 51.8086 57.8596 53.1018 59.4547 53.1018V52.7018C58.0771 52.7018 56.9522 51.5843 56.9522 50.2232H56.5522ZM59.4547 53.1018H64.1841V52.7018H59.4547V53.1018ZM64.1841 53.1018C70.6437 53.1018 75.8696 47.9246 75.8696 41.5179H75.4696C75.4696 47.7004 70.4261 52.7018 64.1841 52.7018V53.1018ZM75.8696 41.5179V40.1786H75.4696V41.5179H75.8696ZM75.8696 40.1786C75.8696 34.0431 70.9873 29.0025 64.8708 28.6619L64.8486 29.0613C70.7582 29.3904 75.4696 34.2605 75.4696 40.1786H75.8696ZM38.5104 65.1554C39.888 65.1554 41.0129 66.2729 41.0129 67.6339H41.4129C41.4129 66.0486 40.1056 64.7554 38.5104 64.7554V65.1554ZM41.0129 67.6339C41.0129 68.995 39.888 70.1125 38.5104 70.1125V70.5125C40.1056 70.5125 41.4129 69.2193 41.4129 67.6339H41.0129ZM38.5104 70.1125C37.1329 70.1125 36.008 68.995 36.008 67.6339H35.608C35.608 69.2193 36.9153 70.5125 38.5104 70.5125V70.1125ZM36.008 67.6339C36.008 66.2729 37.1329 65.1554 38.5104 65.1554V64.7554C36.9153 64.7554 35.608 66.0486 35.608 67.6339H36.008ZM16.0149 31.4732V50.2232H16.4149V31.4732H16.0149ZM16.2149 50.0232H11.4856V50.4232H16.2149V50.0232ZM11.4856 50.0232C6.72987 50.0232 2.90249 46.2272 2.90249 41.5179H2.50249C2.50249 46.4514 6.51232 50.4232 11.4856 50.4232V50.0232ZM2.90249 41.5179V40.1786H2.50249V41.5179H2.90249ZM2.90249 40.1786C2.90249 35.4693 6.72987 31.6732 11.4856 31.6732V31.2732C6.51232 31.2732 2.50249 35.245 2.50249 40.1786H2.90249ZM11.4856 31.6732H16.2149V31.2732H11.4856V31.6732ZM72.7672 41.5179C72.7672 46.2272 68.9398 50.0232 64.1841 50.0232V50.4232C69.1573 50.4232 73.1672 46.4514 73.1672 41.5179H72.7672ZM64.1841 50.0232H59.4547V50.4232H64.1841V50.0232ZM59.6547 50.2232V31.4732H59.2547V50.2232H59.6547ZM59.4547 31.6732H64.1841V31.2732H59.4547V31.6732ZM64.1841 31.6732C68.9398 31.6732 72.7672 35.4693 72.7672 40.1786H73.1672C73.1672 35.245 69.1573 31.2732 64.1841 31.2732V31.6732ZM72.7672 40.1786V41.5179H73.1672V40.1786H72.7672Z" fill="#E53334" mask="url(#path-1-outside-1_18_168)"/>
<path d="M49.1012 12.0346L49.1014 12.0343L49.0945 12.0309C48.9663 11.9674 48.77 11.8379 48.5647 11.7023L48.5589 11.6984C48.3632 11.5691 48.1596 11.4346 48.0191 11.3641C47.3641 10.9357 46.421 11.1504 46.0556 11.8746C45.8778 12.2271 45.8218 12.6028 45.9041 12.9474C45.9867 13.2932 46.2071 13.5997 46.5667 13.8136L46.5666 13.8139L46.5735 13.8173C46.7016 13.8808 46.898 14.0103 47.1032 14.1459L47.1099 14.1504C47.3039 14.2785 47.5114 14.4157 47.7225 14.488C47.9418 14.6291 48.2257 14.6982 48.442 14.6982C48.9487 14.6982 49.3881 14.48 49.6772 13.9785L49.6772 13.9785L49.6778 13.9775C50.0436 13.325 49.8209 12.4626 49.1012 12.0346Z" fill="#E53334" stroke="#E53334" stroke-width="0.2"/>
<path d="M23.0407 17.4193L23.0405 17.4195L23.0466 17.424C23.3256 17.6315 23.6167 17.7786 23.9845 17.7786C24.4155 17.7786 24.783 17.6344 25.0744 17.2743C28.2986 13.6135 32.9326 11.484 37.8348 11.484C39.0435 11.484 40.2524 11.6171 41.4616 11.8834L41.4616 11.8835L41.4654 11.8842C42.2622 12.0277 42.9841 11.5249 43.2004 10.8102C43.3123 10.4404 43.2172 10.0582 43.0106 9.74666C42.8043 9.43539 42.4814 9.18582 42.1197 9.07828L42.1198 9.07812L42.1142 9.07681C40.6866 8.73991 39.2599 8.60538 37.8348 8.60538C32.0632 8.60538 26.6308 11.0955 22.8959 15.4029C22.3856 15.9813 22.4594 16.9151 23.0407 17.4193Z" fill="#E53334" stroke="#E53334" stroke-width="0.2"/>
</g>
<defs>
<clipPath id="clip0_18_168">
<rect width="75.6696" height="75" fill="white"/>
</clipPath>
</defs>
</svg>
