<svg width="89" height="75" viewBox="0 0 89 75" fill="none" xmlns="http://www.w3.org/2000/svg">
<path d="M60.3418 13.0852L60.4532 13.1011C61.8328 13.2981 62.8943 14.4848 62.8947 15.9202L60.3418 13.0852ZM60.3418 13.0852L60.2344 13.1186L39.7527 19.4725L39.9008 20.45H62.4019H62.9028L62.9019 19.9492L62.8947 15.9211L60.3418 13.0852ZM75.1426 33.0663V33.4089L75.4622 33.5326C77.3717 34.2716 78.7289 36.1218 78.7298 38.2834C78.7298 38.2835 78.7298 38.2836 78.7298 38.2836V47.7043C78.7298 49.8676 77.3718 51.7179 75.4622 52.457L75.1426 52.5806V52.9233V56.377C75.1426 61.8689 70.674 66.3374 65.184 66.3374H20.8985C15.4077 66.3374 10.9399 61.868 10.9399 56.377V30.4095C10.9399 24.9177 15.4086 20.4491 20.8985 20.4491H20.9932H21.0873L21.175 20.4149C21.8693 20.1438 22.602 19.9662 23.3696 19.9218L23.4306 19.9183L23.4889 19.9002L59.7136 8.66263H60.0481C64.0488 8.66263 67.3039 11.9178 67.3039 15.9166V15.9176L67.312 20.2981L67.3127 20.6839L67.6861 20.781C71.9694 21.8956 75.1426 25.7858 75.1426 30.4095V33.0663ZM70.2335 33.1859H70.7335V32.6859V30.4095C70.7335 27.3433 68.2497 24.8583 65.184 24.8583H20.8994C17.8347 24.8583 15.35 27.3433 15.35 30.4095V56.3761C15.35 59.4414 17.8347 61.9273 20.8994 61.9273H65.184C68.2497 61.9273 70.7335 59.4414 70.7335 56.377V53.3028V52.8028H70.2335H58.9879C56.1773 52.8028 53.8894 50.5151 53.8894 47.7034V38.2834C53.8894 35.4729 56.1771 33.1859 58.9879 33.1859H70.2335ZM73.6295 48.3937C74.012 48.3937 74.3197 48.086 74.3197 47.7034V38.2834C74.3197 37.899 74.0056 37.595 73.6295 37.595H58.9879C58.6087 37.595 58.2986 37.902 58.2986 38.2834V47.7034C58.2986 48.0829 58.6023 48.3937 58.9879 48.3937H73.6295Z" fill="#E53334" stroke="white"/>
</svg>
