<svg width="19" height="19" viewBox="0 0 19 19" fill="none" xmlns="http://www.w3.org/2000/svg">
<path d="M7.99585 8.59129C8.03335 8.34379 8.11585 8.12629 8.22085 7.93879C8.32585 7.75129 8.47585 7.59379 8.66335 7.47379C8.84335 7.36129 9.06835 7.30879 9.34585 7.30129C9.51835 7.30879 9.67585 7.33879 9.81835 7.39879C9.96835 7.46629 10.1034 7.55629 10.2084 7.66879C10.3134 7.78129 10.3959 7.91629 10.4634 8.06629C10.5309 8.21629 10.5609 8.38129 10.5684 8.54629H11.9109C11.8959 8.19379 11.8284 7.87129 11.7009 7.57879C11.5734 7.28629 11.4009 7.03129 11.1759 6.82129C10.9509 6.61129 10.6809 6.44629 10.3659 6.32629C10.0509 6.20629 9.70585 6.15379 9.32335 6.15379C8.83585 6.15379 8.40835 6.23629 8.04835 6.40879C7.68835 6.58129 7.38835 6.80629 7.14835 7.09879C6.90835 7.39129 6.72835 7.72879 6.61585 8.11879C6.50335 8.50879 6.43585 8.91379 6.43585 9.34879V9.55129C6.43585 9.98629 6.49585 10.3913 6.60835 10.7813C6.72085 11.1713 6.90085 11.5088 7.14085 11.7938C7.38085 12.0788 7.68085 12.3113 8.04085 12.4763C8.40085 12.6413 8.82835 12.7313 9.31585 12.7313C9.66835 12.7313 9.99835 12.6713 10.3059 12.5588C10.6134 12.4463 10.8834 12.2888 11.1159 12.0863C11.3484 11.8838 11.5359 11.6513 11.6709 11.3813C11.8059 11.1113 11.8884 10.8263 11.8959 10.5188H10.5534C10.5459 10.6763 10.5084 10.8188 10.4409 10.9538C10.3734 11.0888 10.2834 11.2013 10.1709 11.2988C10.0584 11.3963 9.93085 11.4713 9.78085 11.5238C9.63835 11.5763 9.48835 11.5913 9.33085 11.5988C9.06085 11.5913 8.83585 11.5388 8.66335 11.4263C8.47585 11.3063 8.32585 11.1488 8.22085 10.9613C8.11585 10.7738 8.03335 10.5488 7.99585 10.3013C7.95835 10.0538 7.93585 9.79879 7.93585 9.55129V9.34879C7.93585 9.08629 7.95835 8.83879 7.99585 8.59129ZM9.43585 1.94629C5.29585 1.94629 1.93585 5.30629 1.93585 9.44629C1.93585 13.5863 5.29585 16.9463 9.43585 16.9463C13.5759 16.9463 16.9359 13.5863 16.9359 9.44629C16.9359 5.30629 13.5759 1.94629 9.43585 1.94629ZM9.43585 15.4463C6.12835 15.4463 3.43585 12.7538 3.43585 9.44629C3.43585 6.13879 6.12835 3.44629 9.43585 3.44629C12.7434 3.44629 15.4359 6.13879 15.4359 9.44629C15.4359 12.7538 12.7434 15.4463 9.43585 15.4463Z" fill="#909090"/>
</svg>
