<svg width="24" height="24" viewBox="0 0 24 24" fill="none" xmlns="http://www.w3.org/2000/svg">
<path d="M11.726 9.18321C10.9765 9.18321 10.2576 9.48096 9.72764 10.011C9.19764 10.541 8.89988 11.2598 8.89988 12.0094C8.89988 12.7589 9.19764 13.4777 9.72764 14.0077C10.2576 14.5378 10.9765 14.8355 11.726 14.8355C12.4756 14.8355 13.1944 14.5378 13.7244 14.0077C14.2544 13.4777 14.5522 12.7589 14.5522 12.0094C14.5522 11.2598 14.2544 10.541 13.7244 10.011C13.1944 9.48096 12.4756 9.18321 11.726 9.18321ZM11.726 7.29911C12.9753 7.29911 14.1733 7.79537 15.0567 8.67871C15.94 9.56205 16.4363 10.7601 16.4363 12.0094C16.4363 13.2586 15.94 14.4567 15.0567 15.34C14.1733 16.2233 12.9753 16.7196 11.726 16.7196C10.4768 16.7196 9.27872 16.2233 8.39538 15.34C7.51204 14.4567 7.01578 13.2586 7.01578 12.0094C7.01578 10.7601 7.51204 9.56205 8.39538 8.67871C9.27872 7.79537 10.4768 7.29911 11.726 7.29911ZM17.8493 7.0636C17.8493 7.37591 17.7253 7.67543 17.5044 7.89626C17.2836 8.1171 16.9841 8.24116 16.6718 8.24116C16.3595 8.24116 16.06 8.1171 15.8391 7.89626C15.6183 7.67543 15.4942 7.37591 15.4942 7.0636C15.4942 6.75129 15.6183 6.45177 15.8391 6.23094C16.06 6.0101 16.3595 5.88604 16.6718 5.88604C16.9841 5.88604 17.2836 6.0101 17.5044 6.23094C17.7253 6.45177 17.8493 6.75129 17.8493 7.0636ZM11.726 4.47297C9.3954 4.47297 9.01481 4.47956 7.93051 4.5276C7.19195 4.56246 6.69643 4.66137 6.23671 4.84036C5.85219 4.98202 5.50447 5.20836 5.2193 5.50262C4.92469 5.78771 4.69802 6.13544 4.55609 6.52004C4.3771 6.98164 4.27819 7.47622 4.24427 8.21384C4.19529 9.25386 4.18869 9.6175 4.18869 12.0094C4.18869 14.3409 4.19529 14.7206 4.24333 15.8049C4.27819 16.5425 4.3771 17.039 4.55515 17.4977C4.7153 17.9075 4.90371 18.2024 5.21647 18.5151C5.53394 18.8317 5.8288 19.021 6.23388 19.1774C6.69925 19.3573 7.19477 19.4572 7.92957 19.4911C8.96959 19.5401 9.33322 19.5457 11.7251 19.5457C14.0567 19.5457 14.4363 19.5392 15.5206 19.4911C16.2573 19.4563 16.7528 19.3573 17.2135 19.1793C17.598 19.0376 17.9457 18.8113 18.2309 18.517C18.5483 18.2005 18.7377 17.9056 18.8941 17.4996C19.0731 17.0361 19.1729 16.5406 19.2068 15.8039C19.2558 14.7649 19.2615 14.4003 19.2615 12.0094C19.2615 9.67873 19.2549 9.29814 19.2068 8.21384C19.172 7.47716 19.0721 6.97976 18.8941 6.52004C18.7524 6.13552 18.5261 5.7878 18.2318 5.50262C17.9467 5.20802 17.599 4.98135 17.2144 4.83942C16.7528 4.66043 16.2573 4.56152 15.5206 4.5276C14.4815 4.47862 14.1179 4.47297 11.7251 4.47297M11.7251 2.58887C14.2846 2.58887 14.604 2.59829 15.6092 2.64539C16.6115 2.69249 17.2954 2.84981 17.8955 3.08344C18.5173 3.32272 19.041 3.64679 19.5648 4.16963C20.044 4.6404 20.4147 5.21009 20.651 5.83894C20.8837 6.43902 21.042 7.12295 21.0891 8.12623C21.1333 9.13046 21.1456 9.44981 21.1456 12.0094C21.1456 14.5689 21.1362 14.8883 21.0891 15.8925C21.042 16.8967 20.8837 17.5788 20.651 18.1798C20.4147 18.8086 20.044 19.3783 19.5648 19.8491C19.094 20.3283 18.5244 20.699 17.8955 20.9353C17.2954 21.168 16.6115 21.3262 15.6092 21.3733C14.604 21.4176 14.2846 21.4298 11.7251 21.4298C9.16554 21.4298 8.84618 21.4204 7.84102 21.3733C6.83868 21.3262 6.15569 21.168 5.55466 20.9353C4.92582 20.699 4.35613 20.3283 3.88535 19.8491C3.40614 19.3783 3.03545 18.8086 2.79917 18.1798C2.56554 17.5797 2.40822 16.8958 2.36112 15.8925C2.3159 14.8883 2.3046 14.5689 2.3046 12.0094C2.3046 9.44981 2.31402 9.13046 2.36112 8.12623C2.40822 7.12201 2.56554 6.43996 2.79917 5.83894C3.03545 5.21009 3.40614 4.6404 3.88535 4.16963C4.35613 3.69041 4.92582 3.31972 5.55466 3.08344C6.15475 2.84981 6.83774 2.69249 7.84102 2.64539C8.84713 2.60111 9.16648 2.58887 11.726 2.58887" fill="black"/>
</svg>
