<svg width="24" height="24" viewBox="0 0 24 24" fill="none" xmlns="http://www.w3.org/2000/svg">
<path d="M5.29936 7.48422C6.43773 7.48422 7.36057 6.56139 7.36057 5.42302C7.36057 4.28465 6.43773 3.36182 5.29936 3.36182C4.16099 3.36182 3.23816 4.28465 3.23816 5.42302C3.23816 6.56139 4.16099 7.48422 5.29936 7.48422Z" fill="black"/>
<path d="M9.30682 9.04629V20.4818H12.8574V14.8267C12.8574 13.3345 13.1381 11.8894 14.9883 11.8894C16.8131 11.8894 16.8357 13.5954 16.8357 14.9209V20.4828H20.3881V14.2115C20.3881 11.131 19.7249 8.76367 16.1244 8.76367C14.3958 8.76367 13.237 9.71232 12.7632 10.6101H12.7151V9.04629H9.30682ZM3.52075 9.04629H7.07699V20.4818H3.52075V9.04629Z" fill="black"/>
</svg>
