<svg width="32" height="32" viewBox="0 0 32 32" fill="none" xmlns="http://www.w3.org/2000/svg">
<path fill-rule="evenodd" clip-rule="evenodd" d="M10.6667 9.33329V7.99996C10.6667 6.58547 11.2286 5.22892 12.2288 4.22872C13.229 3.22853 14.5856 2.66663 16 2.66663C17.4145 2.66663 18.7711 3.22853 19.7713 4.22872C20.7715 5.22892 21.3334 6.58547 21.3334 7.99996V9.33329H25.3334C26.0694 9.33329 26.6667 9.93196 26.6667 10.676V26.6773C26.6667 28.144 25.4734 29.3333 24.008 29.3333H7.99204C7.28738 29.3333 6.61154 29.0535 6.11302 28.5555C5.6145 28.0575 5.33408 27.382 5.33337 26.6773V10.6773C5.33337 9.93329 5.92671 9.33329 6.66671 9.33329H10.6667ZM12.2667 9.33329H19.7334V7.99996C19.7334 7.00982 19.34 6.06023 18.6399 5.36009C17.9398 4.65996 16.9902 4.26663 16 4.26663C15.0099 4.26663 14.0603 4.65996 13.3602 5.36009C12.66 6.06023 12.2667 7.00982 12.2667 7.99996V9.33329ZM10.6667 10.9333H6.93337V26.6773C6.93337 27.2586 7.40804 27.7333 7.99204 27.7333H24.008C24.2884 27.7333 24.5572 27.6221 24.7557 27.4242C24.9542 27.2262 25.066 26.9576 25.0667 26.6773V10.9333H21.3334V14.6666H19.7334V10.9333H12.2667V14.6666H10.6667V10.9333Z" fill="black"/>
</svg>
