<svg width="36" height="37" viewBox="0 0 36 37" fill="none" xmlns="http://www.w3.org/2000/svg">
<path d="M18 32.2577C15.33 32.2577 12.7199 31.4659 10.4998 29.9825C8.27974 28.4991 6.54941 26.3907 5.52763 23.9239C4.50584 21.4571 4.2385 18.7427 4.7594 16.124C5.2803 13.5052 6.56605 11.0998 8.45406 9.21175C10.3421 7.32375 12.7475 6.038 15.3663 5.5171C17.985 4.99619 20.6994 5.26354 23.1662 6.28532C25.633 7.30711 27.7414 9.03743 29.2248 11.2575C30.7082 13.4776 31.5 16.0876 31.5 18.7577C31.5 20.9897 30.96 23.0942 30 24.9482L31.5 32.2577L24.1905 30.7577C22.3365 31.7177 20.2305 32.2577 18 32.2577Z" stroke="white" stroke-width="2" stroke-linecap="round" stroke-linejoin="round"/>
</svg>
